<?xml version="1.0" encoding="UTF-8"?>
<!DOCTYPE svg PUBLIC "-//W3C//DTD SVG 1.1//EN" "http://www.w3.org/Graphics/SVG/1.1/DTD/svg11.dtd">
<!-- Creator: CorelDRAW (Evaluation Version) -->
<svg xmlns="http://www.w3.org/2000/svg" xml:space="preserve" width="220.684mm" height="220.684mm" version="1.1" style="shape-rendering:geometricPrecision; text-rendering:geometricPrecision; image-rendering:optimizeQuality; fill-rule:evenodd; clip-rule:evenodd"
viewBox="0 0 22068.4 22068.4"
 xmlns:xlink="http://www.w3.org/1999/xlink"
 xmlns:xodm="http://www.corel.com/coreldraw/odm/2003">
 <defs>
  <style type="text/css">
   <![CDATA[
    .fil0 {fill:#DCDDDD}
    .fil3 {fill:#F7BB8E}
    .fil1 {fill:#EF8126}
    .fil2 {fill:#214360}
   ]]>
  </style>
 </defs>
 <g id="Layer_x0020_1">
  <metadata id="CorelCorpID_0Corel-Layer"/>
  <circle class="fil0" cx="11027.87" cy="11040.53" r="10583.33"/>
  <g id="_2863181747152">
   <path class="fil1" d="M6480.65 6671.98l-24.59 936.66c-0.98,327.09 -4.45,658.63 -0.15,985.04 8.34,638.1 22.03,1340.95 6.1,1974.91l945.17 -0.68c8.06,-727.59 -42.14,-3117.57 4.96,-3593.24 64.8,-654.29 722.86,-519.67 1166.56,-516.11 472.65,3.8 1179.42,-47.29 1619.55,3.28 3.85,324.29 2.52,648.37 8.02,973.07 10.31,610.49 9.3,496.1 1316.26,488.23 191.43,-1.13 670.18,60.56 779.01,-110.73 53.35,-122.06 -51.75,-1106.52 -86.42,-1296.54l20.23 -79.62c469.52,-4.69 939.6,0.2 1401.41,3.42 290.52,2.05 1074.86,-60.98 1278.83,132.56 265.23,251.75 177.33,920.54 183.21,1297.15 3.95,251.57 0.57,502.22 2.97,753.25 2.34,248.05 -28.29,562.65 -3.32,796.81 95.21,56.39 252.62,174 304.21,263.03l628.86 574.8c33,-665.1 8.81,-1396.14 15.8,-2069.21 6.13,-594.24 71.5,-1348.82 -156.18,-1891.63 -512.98,-1222.93 -1792.04,-919.34 -2976.96,-919.27 -1275.71,0.1 -2551.32,-3.46 -3827.02,-0.89 -530.15,1.09 -1289.8,-71.83 -1772.66,143.34 -395.18,176.08 -809.51,679.85 -833.85,1152.37z"/>
   <path class="fil2" d="M7407.18 10567.91l-945.17 0.68c-110.54,33.81 -642.23,10.3 -800.41,10.33 -142.77,0.04 -285.39,-0.71 -428.17,-1.57 -203.91,-1.2 -179.7,-9.79 -348.36,73.57l-28.96 22.72 -37.14 20.84 -25.98 29.7c1.77,42.43 11.98,33.78 -25,31.93l-19.28 33.05c-70.59,229.85 -139.59,323.23 -38.66,574.15 72.7,180.74 173.25,258.56 344.31,318.37 249.72,87.32 8549.12,-37.37 8791.59,51.87 6.41,152.28 -454.1,449.29 -587.93,563.55 -203.88,174.03 -408.35,352.92 -612.48,524.94 -669.07,563.78 42.45,1422.73 600.98,1029.42l2497.04 -2106.72c226.45,-238.87 193.22,-608.84 -3.7,-850.39 -138.42,-169.79 -418.44,-393.44 -589.57,-548.28 -278.79,-252.22 -1577.06,-1531.75 -1877.35,-1589.58 -286.79,-55.23 -576.74,158.19 -617.64,475.5 -87.3,677.52 886.41,942.75 986.71,1342.14l-6234.83 -6.22z"/>
   <path class="fil2" d="M15463.85 15650.39c-30.06,-364.08 -254.29,-657.95 -416.19,-946.82 -386.9,314.23 -593.08,232.41 -1063.01,232.55l-6289.01 -12.77c-316.34,-1.61 -951.9,-61.25 -1224.53,-11.25 -352.85,64.74 -560.96,496.95 -379.56,840.47 202.71,383.93 615.49,304.74 961.67,306.87 419.1,2.6 838.71,3.42 1257.85,4.58 838.55,2.26 1677.1,1.44 2515.66,2.7 838.49,1.27 1677.13,0.35 2515.62,0.28 635.82,-0.07 1640.7,124.21 2121.5,-416.61z"/>
   <path class="fil2" d="M3290.3 13431.91c95.21,545.58 804.04,415.79 1407.86,416.65l3559.39 -1.58c416.1,-1.26 1334.47,173.08 1278.9,-523.16 -26.9,-336.85 -269.34,-405.66 -529.48,-404.4l-2649.56 1.89c-597.72,1.5 -1195.32,0.51 -1793.05,-0.38 -283.5,-0.41 -606.29,-14.58 -884.89,-0.55 -241.74,12.18 -434.15,253.73 -389.17,511.53z"/>
   <path class="fil1" d="M15047.66 14703.57c161.9,288.87 386.13,582.74 416.19,946.82 398.87,-330.48 538.78,-795.44 553.19,-1349.23 16.02,-617.91 7.4,-1290.34 4.01,-1911.23 -94.82,16.73 -930.09,732.34 -930.15,732.48 -74,322.85 31.32,1123.83 -43.24,1581.16z"/>
   <path class="fil3" d="M12215.12 6515.87c149.32,-79.01 1274.72,-30.96 1528.67,-29.15 620.45,4.41 1063.04,-120.17 1268.65,273.23 96.1,183.82 59.78,1339.96 59.78,1630.92 -0.04,967.18 -132.76,1006.26 330.44,1291.6 -51.59,-89.03 -209,-206.64 -304.21,-263.03 -24.97,-234.16 5.66,-548.76 3.32,-796.81 -2.4,-251.03 0.98,-501.68 -2.97,-753.25 -5.88,-376.61 82.02,-1045.4 -183.21,-1297.15 -203.97,-193.54 -988.31,-130.51 -1278.83,-132.56 -461.81,-3.22 -931.89,-8.11 -1401.41,-3.42l-20.23 79.62z"/>
   <path class="fil3" d="M4885.07 10650.92l-28.96 22.72 -37.14 20.84c-37.64,-4.17 -27.75,-12.66 -25.98,29.7 -38.15,0.07 -29.14,-9.96 -25,31.93l-19.28 33.05 19.28 -33.05c36.98,1.85 26.77,10.5 25,-31.93l25.98 -29.7 37.14 -20.84 28.96 -22.72c168.66,-83.36 144.45,-74.77 348.36,-73.57 142.78,0.86 285.4,1.61 428.17,1.57 158.18,-0.03 689.87,23.48 800.41,-10.33 15.93,-633.96 2.24,-1336.81 -6.1,-1974.91 -4.3,-326.41 -0.83,-657.95 0.15,-985.04l24.59 -936.66c-158.42,173.66 32.69,3432.3 -67.83,3885.59 -270,-7.63 -535.39,0.31 -804.73,-1.98 -230.65,-1.95 -539.53,-49.79 -723.02,95.33z"/>
  </g>
 </g>
</svg>
