<?xml version="1.0" encoding="UTF-8"?>
<!DOCTYPE svg PUBLIC "-//W3C//DTD SVG 1.1//EN" "http://www.w3.org/Graphics/SVG/1.1/DTD/svg11.dtd">
<!-- Creator: CorelDRAW (Evaluation Version) -->
<svg xmlns="http://www.w3.org/2000/svg" xml:space="preserve" width="184.859mm" height="48.2354mm" version="1.1" style="shape-rendering:geometricPrecision; text-rendering:geometricPrecision; image-rendering:optimizeQuality; fill-rule:evenodd; clip-rule:evenodd"
viewBox="0 0 18485.86 4823.54"
 xmlns:xlink="http://www.w3.org/1999/xlink"
 xmlns:xodm="http://www.corel.com/coreldraw/odm/2003">
 <defs>
  <style type="text/css">
   <![CDATA[
    .fil4 {fill:#F7BB8E}
    .fil0 {fill:#EF8126}
    .fil2 {fill:#B8C9D4}
    .fil3 {fill:#89A7B6}
    .fil5 {fill:#687A95}
    .fil1 {fill:#214360}
   ]]>
  </style>
 </defs>
 <g id="Layer_x0020_1">
  <metadata id="CorelCorpID_0Corel-Layer"/>
  <g id="_1701493218720">
   <path class="fil0" d="M1430.04 603.15l-11.05 420.85c-0.44,146.96 -2,295.92 -0.07,442.58 3.75,286.7 9.9,602.49 2.74,887.33l424.67 -0.31c3.62,-326.9 -18.93,-1400.73 2.23,-1614.44 29.11,-293.98 324.78,-233.49 524.13,-231.89 212.37,1.7 529.92,-21.25 727.67,1.47 1.73,145.7 1.13,291.31 3.61,437.2 4.63,274.29 4.17,222.9 591.39,219.36 86.01,-0.51 301.11,27.21 350.01,-49.75 23.97,-54.84 -23.25,-497.16 -38.83,-582.53l9.09 -35.78c210.96,-2.11 422.17,0.09 629.66,1.54 130.53,0.92 482.93,-27.4 574.58,59.56 119.17,113.11 79.67,413.6 82.31,582.81 1.78,113.03 0.26,225.65 1.34,338.43 1.05,111.45 -12.71,252.8 -1.49,358.01 42.77,25.34 113.5,78.18 136.68,118.18l282.54 258.26c14.83,-298.83 3.97,-627.29 7.11,-929.7 2.75,-266.99 32.12,-606.03 -70.18,-849.91 -230.48,-549.46 -805.16,-413.06 -1337.55,-413.03 -573.17,0.05 -1146.31,-1.55 -1719.48,-0.4 -238.2,0.49 -579.51,-32.27 -796.46,64.4 -177.55,79.12 -363.71,305.46 -374.65,517.76z"/>
   <path class="fil1" d="M1846.33 2353.6l-424.67 0.31c-49.66,15.19 -288.55,4.63 -359.62,4.64 -64.15,0.02 -128.23,-0.32 -192.38,-0.71 -91.62,-0.53 -80.74,-4.39 -156.52,33.06l-13.01 10.21 -16.68 9.36 -11.68 13.34c0.8,19.07 5.38,15.18 -11.23,14.35l-8.67 14.85c-31.71,103.27 -62.71,145.23 -17.36,257.97 32.66,81.2 77.84,116.17 154.7,143.04 112.19,39.23 3841.12,-16.79 3950.07,23.31 2.88,68.41 -204.03,201.86 -264.16,253.2 -91.6,78.19 -183.47,158.57 -275.19,235.85 -300.61,253.31 19.07,639.24 270.02,462.53l1121.92 -946.56c101.75,-107.32 86.82,-273.55 -1.66,-382.08 -62.19,-76.29 -188,-176.77 -264.89,-246.34 -125.26,-113.33 -708.58,-688.22 -843.5,-714.2 -128.85,-24.82 -259.13,71.07 -277.5,213.64 -39.23,304.41 398.26,423.58 443.33,603.03l-2801.32 -2.8z"/>
   <path class="fil1" d="M14917.02 2856.69c1.65,-62.92 151.35,-533.5 188.52,-659.25l78.21 -217.41 257.9 878.57 -524.63 -1.91zm-295.32 909.15c78.6,-126.75 105.8,-348.72 172.09,-495.78l769.56 0.67c44.13,68.53 129.68,387.57 169.61,499.83l437.2 -5.3c5.55,-77.06 -322.2,-1047.12 -372.36,-1201.83 -54.57,-168.35 -336.78,-1102.49 -398.34,-1181.66l-456.61 1.29c-40.86,86.04 -68.44,200.09 -98.62,292.87 -31.48,96.83 -65.48,201.63 -97.42,301.77 -62.74,196.7 -127.8,401.08 -190.76,595.61 -46.14,142.59 -370.66,1129.13 -369.19,1194.27l434.84 -1.74z"/>
   <path class="fil1" d="M7563.34 2865.64c19.48,-90.66 239.85,-850.03 268.38,-884.47 26.58,39.39 9.74,13.27 25.09,61.25 6.61,20.62 7.69,26.32 13.35,48.36 9.42,36.62 19.6,72.42 30.37,108.22 22.28,74.15 43.87,145.74 66.5,217.11 31.79,100.2 120.45,356.61 125.95,449.15l-529.64 0.38zm-121.82 404.46l774.99 2.84c32.73,49.83 66.84,180.29 87.48,245.94 23.57,75.01 63.65,181.2 81.7,248.34l436.33 -5.84c5.4,-73.78 -145.67,-487.07 -179.63,-592.45 -80.69,-250.46 -551.57,-1743.99 -588.33,-1773.06 -58.08,-32.92 -366.45,-14.76 -454.03,-9.21 -27.98,53.26 -74.18,218.86 -98.52,294.02 -32.96,101.86 -61.91,197.13 -95.51,298.82l-377.27 1185.27c-35.91,107.31 -176.63,522.03 -178.22,609.65l440.51 -6.37 150.5 -497.95z"/>
   <path class="fil1" d="M5466.2 4637.17c-13.5,-163.59 -114.25,-295.62 -187,-425.41 -173.83,141.18 -266.47,104.42 -477.61,104.48l-2825.66 -5.73c-142.13,-0.73 -427.69,-27.52 -550.18,-5.06 -158.53,29.09 -252.04,223.28 -170.53,377.62 91.07,172.5 276.54,136.93 432.07,137.88 188.31,1.17 376.84,1.54 565.16,2.06 376.76,1.02 753.52,0.65 1130.29,1.22 376.73,0.56 753.54,0.15 1130.27,0.12 285.67,-0.03 737.17,55.81 953.19,-187.18z"/>
   <path class="fil1" d="M17408.38 2695.36c12.37,-414.88 682.13,-419.82 658.02,-2l-658.02 2zm1061.59 328.45c137.76,-1181.7 -1256.03,-1376.35 -1469.85,-324.18 -92.3,454.16 96.51,931.5 522.4,1061.83 574.71,175.87 980.35,-334.42 933.85,-533.08l-379.95 0.79c-60.06,79.58 -46.46,120.73 -150.88,170.13 -239.19,113.16 -548.02,-78.67 -533.09,-369.81l1077.52 -5.68z"/>
   <path class="fil1" d="M12677.72 3028.3c33.74,379.96 -363.62,515.77 -528.47,363.62 -107.67,-99.36 -85.87,-278.74 55.21,-341.65 78.78,-35.13 380.82,-32.87 473.26,-21.97zm-559.84 -450.97c85.76,-150.67 135.5,-242.09 331.38,-213.48 140.18,20.47 248.89,186.85 211.12,332.92 -52.52,25.2 -302.08,21.02 -380.08,23.88 -792.17,29.1 -730.7,933.7 -183.78,1053.49 283.52,62.12 402.32,-15.14 584.15,-168.42l3.92 159.63c90.15,-6.78 294.32,18.82 359.78,-13.96 24.92,-69.42 8.23,-794.25 7.99,-931.06 -0.48,-280.13 34.8,-524.95 -215.31,-689.33 -274.26,-180.25 -724.41,-166.88 -982.62,136.6 -52.02,61.12 -141.03,221.76 -114.2,303.13 42.85,29.46 308.72,17.87 377.65,6.6z"/>
   <path class="fil1" d="M9365.26 3752.7c21.27,-72.4 7.57,-722.88 7.64,-854.26 0.05,-130.62 -18.73,-260.83 53.92,-368.99 130.22,-193.88 406.15,-175.54 513.74,12.61 107.19,187.44 -2.08,1036.24 53.52,1220.48l373.19 -4.6c20.88,-214.84 2.83,-553.35 2.52,-781.4 -0.31,-227.57 30.77,-476.79 -81,-676.7 -154.9,-277.06 -505.9,-354.38 -745.57,-220.53 -109.03,60.91 -149.9,149.77 -189.24,161.97l-14.8 -178.96c-53.03,-33.41 -290.09,-21.97 -364.52,-10.43l5.54 1698.25c46.36,25.06 333.9,25.62 385.06,2.56z"/>
   <path class="fil1" d="M10471.8 2047.74l7.51 352.89 261.33 1.29c16.89,142.23 4.31,382.87 4.31,535.57 0.01,184.44 -0.2,336.85 17.37,520.6 136.62,351.61 447.56,361.47 775.85,287.2l-1.58 -354.37c-74.42,-2.86 -142.57,33.99 -238.42,19.25 -57.92,-8.92 -128.43,-72.21 -129.99,-137.4 -55.53,-60.17 -31.12,-329.52 -31.17,-426.41 -0.08,-101.18 -16.12,-358.79 8.4,-434.58 44.09,-27.06 143.7,-13.35 197.41,-13.39 62.99,-0.08 126.65,1.63 189.35,0.92l4.9 -347.98 -397.44 -3.73 -10.42 -414.44c-19.27,3.35 -15.67,8.05 -12.44,-12.38 -18.92,2.42 -14.05,6.32 -11.35,-15.03l-356.7 -1.51 -10.82 446.13 -266.1 -2.63z"/>
   <path class="fil1" d="M-3.39 3640.4c42.78,245.13 361.26,186.82 632.56,187.2l1599.23 -0.71c186.96,-0.57 599.58,77.77 574.61,-235.06 -12.08,-151.34 -121.01,-182.26 -237.89,-181.69l-1190.45 0.85c-268.56,0.67 -537.06,0.23 -805.62,-0.17 -127.38,-0.19 -272.41,-6.55 -397.58,-0.25 -108.62,5.47 -195.07,114 -174.86,229.83z"/>
   <path class="fil1" d="M16062.79 4416.57c133.21,96.71 466.75,24.19 584.71,-97.05 167.79,-172.49 145.64,-417.6 145.77,-653.09 0.24,-425.79 15.7,-1241.57 -1.79,-1618.78l-395.66 6.5c-8.36,337.26 16.78,1568.39 -4.61,1780.94 -6.21,61.68 -37.99,159.38 -93.32,197.42 -68.43,47.03 -157.16,22.91 -236.99,32.24l1.89 351.82z"/>
   <path class="fil1" d="M13959.28 2051.33c-75.32,-1.82 -129.39,47.33 -184.91,90.35 0,23.28 5.02,18.33 -16.38,12.96 6.15,22.39 7.89,15.56 -14.29,10.47 2.84,22.77 8.19,20 -11.41,13.82 5.97,20.7 10.03,16.04 -9.45,16.04 9.95,29.21 21.19,31.1 -4.85,20.34 -22.17,25.7 15.91,9.35 -39.09,22.38l4.57 -181.18 -365.97 -1.66 7.1 1691.67c52.08,29.38 296.45,11.34 376.75,12.65 -6.04,-96.11 -13.29,-920.6 14.57,-931.61 -1.02,-27.78 -10.71,-51.12 14.13,-67.8 -1.69,-78.84 49.62,-153.7 93.75,-209.09 58.77,-73.8 106.85,-69.45 177.79,-105.19 64.93,-38.28 155.12,-17.45 232.17,-10.07l-11.53 -376.11c-117.13,-47.84 -150.62,-18.64 -262.95,-7.97z"/>
   <path class="fil0" d="M5279.2 4211.76c72.75,129.79 173.5,261.82 187,425.41 179.22,-148.49 242.07,-357.4 248.55,-606.21 7.2,-277.63 3.32,-579.76 1.8,-858.72 -42.6,7.52 -417.89,329.04 -417.92,329.1 -33.24,145.06 14.08,504.94 -19.43,710.42z"/>
   <path class="fil1" d="M16375.66 1596.74c66.05,307.99 507.82,223.83 455.65,-87.51 -55.48,-331.26 -523.48,-228.71 -455.65,87.51z"/>
   <path class="fil2" d="M10471.8 2047.74c-19.02,40.78 -7.38,129.27 -7.2,186.83 0.13,40.45 -16.4,151.3 14.71,166.06 24.98,29.24 42.64,16.4 117.98,15.34 45.83,-0.66 91.2,-0.52 137.06,-1.58 -4.24,177.14 -1.08,358.55 -0.69,536.12 0.19,95 -21.41,428.14 28.66,507.58 -17.57,-183.75 -17.36,-336.16 -17.37,-520.6 0,-152.7 12.58,-393.34 -4.31,-535.57l-261.33 -1.29 -7.51 -352.89 266.1 2.63 10.82 -446.13 356.7 1.51c-2.7,21.35 -7.57,17.45 11.35,15.03 -3.23,20.43 -6.83,15.73 12.44,12.38l10.42 414.44 397.44 3.73 -4.9 347.98c-62.7,0.71 -126.36,-1 -189.35,-0.92 -53.71,0.04 -153.32,-13.67 -197.41,13.39 -24.52,75.79 -8.48,333.4 -8.4,434.58 0.05,96.89 -24.36,366.24 31.17,426.41 1.22,-54.24 -19.53,-126.36 -19.44,-205.11 0.08,-73.78 -0.35,-147.52 -0.33,-221.3 0.01,-133.05 9.54,-306.84 -3,-434.58 69.19,8.11 139.75,4.06 209.42,4.09 40.41,0 166.18,17.85 177.34,-16.56 24.5,-26.12 21.95,-309.52 4.9,-347.98 -26.01,-28.85 11.69,-14.16 -48.94,-20.31l-337.26 5.36c-2.4,-57.58 19.88,-396.12 -21.66,-403.22 3.89,-19.83 6.93,-14.58 -12.44,-12.38 2.92,-23.31 8.62,-20.46 -11.35,-15.03 -18.33,-29.97 -139.86,-14.15 -183.46,-14.56 -35.09,-0.34 -164.15,-18.61 -173.24,13.05 -35.17,25.27 -8.11,309.75 -18.6,431.17 -44.27,-0.27 -88.56,-0.29 -132.8,-0.92 -127.15,-1.78 -105.48,-26.46 -125.52,13.25z"/>
   <path class="fil3" d="M13701.35 3759.17c27.25,-48.58 11.43,-382.13 11.47,-470.23 0.05,-73.13 12.23,-426.73 3.1,-461.38l14.13 -67.8c-24.84,16.68 -15.15,40.02 -14.13,67.8 -27.86,11.01 -20.61,835.5 -14.57,931.61 -80.3,-1.31 -324.67,16.73 -376.75,-12.65l-7.1 -1691.67 365.97 1.66 -4.57 181.18c55,-13.03 16.92,3.32 39.09,-22.38 26.04,10.76 14.8,8.87 4.85,-20.34 19.48,0 15.42,4.66 9.45,-16.04 19.6,6.18 14.25,8.95 11.41,-13.82 22.18,5.09 20.44,11.92 14.29,-10.47 21.4,5.37 16.38,10.32 16.38,-12.96 -24.29,-1.51 -22.76,-9.56 -16.38,12.96 -20.53,-5.09 -17.6,-10.84 -14.29,10.47 -21.82,-5.73 -17.44,-9.76 -11.41,13.82 -21.88,-6.55 -15.49,-8.7 -9.45,16.04l-4.85 20.34c-30.47,-37.5 -11.49,4.33 -18.33,-45.68 0,-0.03 1.09,-36.87 1.13,-39.77 0.52,-47.97 12.76,-64.99 -17.32,-73.35 -24.51,-33.03 -139.27,-13.86 -188.31,-13.61 -38.21,0.2 -161.03,-18.89 -177.66,11.95 -25.85,19.49 -12.21,-41.18 -18.36,48.23 -0.37,5.3 1.77,43.97 1.97,53.25 5.45,265.85 -17.67,1573.73 9.6,1605.27 47.89,31.08 136.28,17.31 196.48,16.68 36.83,-0.4 71.4,-1.46 108.44,-0.43 102.7,2.87 74.94,9.01 85.72,-18.68z"/>
   <path class="fil4" d="M4006.54 533.02c67.09,-35.5 572.74,-13.92 686.84,-13.1 278.76,1.98 477.62,-54 570,122.76 43.18,82.59 26.86,602.05 26.86,732.77 -0.01,434.56 -59.65,452.12 148.47,580.32 -23.18,-40 -93.91,-92.84 -136.68,-118.18 -11.22,-105.21 2.54,-246.56 1.49,-358.01 -1.08,-112.78 0.44,-225.4 -1.34,-338.43 -2.64,-169.21 36.86,-469.7 -82.31,-582.81 -91.65,-86.96 -444.05,-58.64 -574.58,-59.56 -207.49,-1.45 -418.7,-3.65 -629.66,-1.54l-9.09 35.78z"/>
   <path class="fil4" d="M713.14 2390.9l-13.01 10.21 -16.68 9.36c-16.92,-1.88 -12.47,-5.69 -11.68,13.34 -17.14,0.04 -13.09,-4.47 -11.23,14.35l-8.67 14.85 8.67 -14.85c16.61,0.83 12.03,4.72 11.23,-14.35l11.68 -13.34 16.68 -9.36 13.01 -10.21c75.78,-37.45 64.9,-33.59 156.52,-33.06 64.15,0.39 128.23,0.73 192.38,0.71 71.07,-0.01 309.96,10.55 359.62,-4.64 7.16,-284.84 1.01,-600.63 -2.74,-887.33 -1.93,-146.66 -0.37,-295.62 0.07,-442.58l11.05 -420.85c-71.18,78.03 14.69,1542.14 -30.48,1745.81 -121.31,-3.43 -240.55,0.14 -361.56,-0.89 -103.63,-0.88 -242.42,-22.37 -324.86,42.83z"/>
   <path class="fil5" d="M13959.28 2051.33c112.33,-10.67 145.82,-39.87 262.95,7.97l11.53 376.11c-77.05,-7.38 -167.24,-28.21 -232.17,10.07 43.64,-2.85 87.07,-7.77 130.87,-4.49 50.67,3.8 62.52,16.2 101.3,-5.58 18.06,-39.33 9.85,-148.07 9.89,-200.84 0.08,-102.24 17.23,-168.59 -21.42,-175.27 -33.22,-68.3 -210.67,-47.95 -262.95,-7.97z"/>
  </g>
 </g>
</svg>
