<?xml version="1.0" encoding="UTF-8"?>
<!DOCTYPE svg PUBLIC "-//W3C//DTD SVG 1.1//EN" "http://www.w3.org/Graphics/SVG/1.1/DTD/svg11.dtd">
<!-- Creator: CorelDRAW (Evaluation Version) -->
<svg xmlns="http://www.w3.org/2000/svg" xml:space="preserve" width="4.746mm" height="3.902mm" version="1.1" style="shape-rendering:geometricPrecision; text-rendering:geometricPrecision; image-rendering:optimizeQuality; fill-rule:evenodd; clip-rule:evenodd"
viewBox="0 0 474.6 390.2"
 xmlns:xlink="http://www.w3.org/1999/xlink"
 xmlns:xodm="http://www.corel.com/coreldraw/odm/2003">
 <defs>
  <style type="text/css">
   <![CDATA[
    .str0 {stroke:black;stroke-width:7.62;stroke-miterlimit:22.9256}
    .str1 {stroke:black;stroke-width:7.62;stroke-miterlimit:22.9256}
    .fil0 {fill:black}
    .fil1 {fill:#FB503B;fill-rule:nonzero}
   ]]>
  </style>
 </defs>
 <g id="Layer_x0020_1">
  <metadata id="CorelCorpID_0Corel-Layer"/>
  <g id="_2089706490736">
   <ellipse class="fil0" cx="-602.52" cy="688.96" rx="74.69" ry="77.11"/>
   <ellipse class="fil0" cx="-760.15" cy="740.86" rx="50.93" ry="50.44"/>
   <ellipse class="fil0" cx="-442.94" cy="744.74" rx="50.93" ry="50.44"/>
   <path class="fil0 str0" d="M-701.54 908.44c-0.27,-44.31 42.98,-81.2 96.22,-82.05l5.6 -0.08c53.22,-0.84 96.99,34.73 97.31,79.02l-0.74 96.68 -198.39 0 0 -93.57z"/>
   <g>
    <path class="fil0 str1" d="M-769.9 899.82c-2.38,4.05 0,67.21 0,100.81l-64.7 0c0,-33.6 -2.61,-95.6 0,-100.81 3.29,-8.92 8.58,-16.68 15.17,-23.22 19.46,-19.31 50.44,-28.08 75.5,-24.98 11.99,1.48 -19.15,16.49 -25.97,48.2z"/>
   </g>
   <g>
    <path class="fil0 str1" d="M-427.06 899.82c2.38,4.05 0,67.21 0,100.81l64.7 0c0,-33.6 2.61,-95.6 0,-100.81 -3.29,-8.92 -8.58,-16.68 -15.17,-23.22 -19.46,-19.31 -50.44,-28.08 -75.5,-24.98 -11.99,1.48 19.15,16.49 25.97,48.2z"/>
   </g>
  </g>
  <g id="_2089706488816">
   <g>
    <path class="fil1" d="M183.89 8.34c-60.08,0.29 -54.82,-0.04 -61,3.77 -5.97,3.68 -9.29,9.2 -9.29,15.56 0,5.8 1.53,10.04 5.06,14l1.73 1.98 -2.04 2.41c-3.52,4.15 -5,9.47 -4.14,15.08l0.26 1.65 -6.38 0.29c-7.04,0.33 -10.11,1.03 -15.57,3.58 -6.74,3.16 -13.37,10.98 -15.36,18.05 -0.62,2.31 -0.77,4.25 -0.57,8.02 0.36,6.88 1.79,10.46 6.23,15.93l2.4 2.93 -3.57 3.15c-2.25,2.08 -4.14,4.25 -5.16,6.13 -0.86,1.65 -1.73,2.97 -1.89,2.97 -0.76,0 -10.31,-5.09 -13.01,-6.93 -1.69,-1.13 -3.68,-2.31 -4.34,-2.59 -1.17,-0.52 -1.23,-0.75 -1.23,-4.81 0,-2.36 0.26,-9.47 0.51,-15.84 0.57,-13.43 0.41,-14.42 -2.75,-17.21 -3.47,-3.06 -5.77,-3.58 -17.2,-3.67 -9.45,-0.1 -10.01,-0.05 -12.61,1.03 -3.12,1.28 -5.82,3.96 -6.64,6.51 -0.3,0.99 -0.92,5.28 -1.38,9.57 -0.4,4.29 -1.22,11.6 -1.83,16.31 -0.87,7.26 -1.02,10.84 -0.87,24.28l0.15 15.79 1.89 3.58c2.3,4.2 7.56,9.1 11.95,11.13l2.75 1.23 0 2.78c0,4 1.43,17.86 2.61,25.31 3.16,20.23 11.58,49.79 18.52,65.06 4.85,10.61 15.01,26.92 23.08,36.91 7.09,8.82 18.93,20.04 29.3,27.77 11.07,8.25 10.97,8.15 10.82,9.38 -0.05,0.61 -0.36,3.02 -0.62,5.37 -0.25,2.31 -0.51,8.77 -0.51,14.34 0.05,14.99 -0.76,14.33 16.85,14.7 63.85,1.51 173.85,1.61 199.48,0.24 13.53,-0.75 13.68,-0.75 16.28,-3.87 1.38,-1.69 1.43,-1.98 1.43,-6.74 0,-5.8 -1.17,-20.65 -1.79,-23.33 -0.56,-2.41 -0.2,-2.97 3.42,-5.52 11.9,-8.34 24.45,-19.19 31.81,-27.53 3.31,-3.72 10.92,-13.48 14.03,-17.91 3.42,-4.91 11.18,-19.52 14.19,-26.64 10.36,-24.84 19.71,-65.34 19.76,-85.66l0 -4.85 2.6 -1.23c3.88,-1.79 9.6,-7.31 11.74,-11.27l1.74 -3.3 0.15 -15.55c0.2,-17.02 -0.21,-22.91 -2.5,-39.55 -1.74,-12.54 -2.5,-14.52 -6.54,-16.69 -2.34,-1.28 -2.45,-1.28 -13.63,-1.42 -13.32,-0.19 -14.59,0.05 -18.12,3.07 -3.47,2.97 -3.77,4.24 -3.06,11.74 0.31,3.34 0.72,10.56 0.87,16.02l0.36 10 -1.23 0.56c-0.66,0.33 -3.16,1.8 -5.56,3.26 -3.88,2.45 -13.78,7.59 -14.5,7.59 -0.15,0 -0.31,-0.33 -0.31,-0.76 0,-1.88 -3.82,-7.35 -7.24,-10.32l-3.53 -3.11 2.61 -2.64c5.15,-5.19 7.14,-10.14 7.14,-17.78 0,-7.02 -2.96,-12.96 -9.39,-18.95 -5.61,-5.18 -11.69,-7.68 -20.57,-8.53 -2.5,-0.24 -2.76,-0.38 -2.5,-1.27 0.82,-3.26 0.87,-4.62 0.1,-7.31 -1.02,-3.72 -2.24,-5.89 -4.9,-8.67l-2.14 -2.22 2.45 -2.5c1.33,-1.32 3.01,-3.63 3.72,-5.04 1.18,-2.27 1.33,-3.21 1.33,-7.55 0,-4.8 -0.05,-5.04 -1.94,-8.25 -3.16,-5.51 -7.5,-9.09 -13.58,-11.21 -2.85,-0.99 -3.21,-1.04 -48.79,-1.04 -25.27,0 -70.04,0.09 -99.54,0.23l0 0zm146.8 11.98c4.03,2.5 5.97,7.3 4.6,11.26 -0.72,1.98 -3.42,4.34 -6.38,5.57 -1.99,0.85 -5.87,0.89 -98.88,0.89l-96.78 0 -2.34 -1.46c-3.68,-2.21 -5.67,-6.65 -4.65,-10.23 0.2,-0.66 0.61,-0.99 1.02,-0.85 0.41,0.14 0.72,0.05 0.72,-0.19 0,-0.28 -0.21,-0.47 -0.51,-0.47 -0.92,0 -0.51,-1.32 0.81,-2.78 1.69,-1.88 2.81,-2.4 5.72,-2.83 1.28,-0.14 45.58,-0.23 98.51,-0.19l96.17 0.1 1.99 1.18 0 0zm-206.27 54.21c7.76,2.92 2.35,2.78 100.05,2.92 49,0.05 93.1,-0.04 98,-0.23 8.84,-0.33 8.99,-0.38 13.07,-2.08 3.68,-1.55 4.65,-1.74 8.22,-1.74 4.29,0 8.37,0.8 12.45,2.4 3.42,1.37 8.17,6.13 9.6,9.62 2.66,6.51 0.05,14.28 -5.82,17.44 -5.05,2.74 3.83,2.6 -134.3,2.6 -125.31,0.04 -127.25,0.04 -129.19,-0.9 -3.26,-1.56 -6.02,-4.95 -6.99,-8.72 -0.56,-2.17 -0.46,-9.81 0.2,-11.36 0.82,-2.03 5.01,-6.32 7.61,-7.83 4.64,-2.73 10,-3.77 18.48,-3.49 4.34,0.15 6.02,0.38 8.62,1.37l0 0zm-81.36 10.75c-0.72,5.37 -0.97,27.91 -0.36,30.64 0.82,3.54 3.12,6.6 7.2,9.62 10.92,8.11 41.34,20.65 58.19,23.99 3.52,0.66 9.7,1.98 13.78,2.83 4.08,0.9 8.68,1.79 10.21,2.08 1.53,0.23 5,0.89 7.66,1.46 4.69,0.94 28.89,4.57 37.77,5.61 23.12,2.69 31.09,3.3 47.73,3.63 16.84,0.38 35.98,-0.33 45.68,-1.65 3.78,-0.52 9.9,-1.27 13.53,-1.7 14.85,-1.65 38.84,-5.89 60.23,-10.61 26.49,-5.89 56.3,-18.33 65.03,-27.15 5.77,-5.84 6.58,-9.76 5.72,-27.91 -0.31,-6.13 -0.72,-11.64 -0.87,-12.25 -0.31,-1.04 -0.31,-1.04 6.02,-1.04l6.38 0 1.13 7.64c2.39,16.92 2.7,20.6 2.8,37.24l0.16 16.36 -2.61 2.35c-8.73,7.88 -36.09,19.05 -67.43,27.53 -8.32,2.27 -19.44,4.81 -25.01,5.76 -2.5,0.42 -6.74,1.17 -9.39,1.69 -2.65,0.52 -9.44,1.56 -15.06,2.31 -5.66,0.76 -13.37,1.79 -17.15,2.36 -12.96,1.79 -39.15,3.3 -57.88,3.3 -24.61,0 -50.84,-1.32 -65.75,-3.25 -4.03,-0.52 -9.95,-1.28 -13.17,-1.7 -14.29,-1.79 -35.22,-5.33 -45.17,-7.59 -9.85,-2.26 -34.61,-9.71 -47.22,-14.19 -18.42,-6.6 -29.81,-11.97 -35.32,-16.74l-2.6 -2.16 0.25 -16.46c0.26,-14.56 0.46,-17.82 1.89,-28.89 0.92,-6.89 1.74,-13.2 1.89,-14.05l0.25 -1.51 5.93 0 5.92 0 -0.36 2.45 0 0zm228.78 41.72l-0.15 10.61 -5.16 0.04 -5.21 0.1 -0.35 -10.47c-0.21,-5.7 -0.26,-10.6 -0.11,-10.84 0.16,-0.19 2.71,-0.33 5.67,-0.24l5.41 0.15 -0.1 10.65 0 0zm21.54 -6.55c0,2.26 -0.15,7.12 -0.36,10.79l-0.3 6.74 -4.96 0 -4.95 0 -0.3 -7.16c-0.21,-3.91 -0.36,-8.86 -0.36,-10.94l0 -3.82 5.61 0.14 5.62 0.15 0 4.1 0 0zm20.93 6.36l-0.05 10.99 -5.01 0.04 -5 0 -0.36 -7.07c-0.15,-3.91 -0.3,-8.72 -0.3,-10.75l0 -3.67 5.26 -0.19c2.85,-0.05 5.25,-0.19 5.3,-0.24 0.11,-0.05 0.16,4.86 0.16,10.89zm16.94 -10.51l5.11 0 -0.31 5.75c-0.15,3.21 -0.46,8.06 -0.61,10.8l-0.31 4.99 -4.9 0.29c-2.65,0.18 -4.95,0.28 -5,0.18 -0.05,-0.04 -0.25,-5.18 -0.51,-11.36 -0.31,-10.56 -0.31,-11.26 0.51,-10.98 0.51,0.19 3.22,0.33 6.02,0.33zm-207.85 3.3c0,1.74 -0.15,6.69 -0.35,11.03l-0.31 7.92 -4.65 -0.33c-2.55,-0.19 -4.79,-0.57 -5,-0.9 -0.2,-0.28 -0.36,-5.09 -0.41,-10.65l0 -10.18 5.36 -0.05 5.36 -0.05 0 3.21 0 0zm20.93 -0.33c0,1.65 -0.15,6.55 -0.36,10.84l-0.3 7.87 -4.9 0 -4.9 0 -0.21 -10.84 -0.15 -10.84 5.41 0 5.41 0 0 2.97 0 0zm20.93 0.71c0,2.07 -0.15,6.93 -0.36,10.84l-0.3 7.16 -5.06 0 -5 0 0 -10.84 0 -10.84 5.36 0 5.36 0 0 3.68 0 0zm20.93 1.13c0,2.68 -0.16,7.54 -0.36,10.84l-0.31 6.03 -4.74 0 -4.7 0 -0.2 -6.64c-0.06,-3.63 -0.06,-8.54 0,-10.85l0.2 -4.19 5.05 0 5.06 0 0 4.81zm20.92 -1.84c0,1.65 -0.15,6.5 -0.35,10.75l-0.31 7.73 -4.75 0 -4.79 0 -0.26 -8.72c-0.15,-4.81 -0.1,-9.62 0.05,-10.75l0.31 -1.98 5.05 0 5.05 0 0 2.97 0 0zm20.93 1.13c0,2.31 -0.15,7.17 -0.35,10.84l-0.31 6.65 -4.9 0 -4.95 -0.05 -0.1 -10.75 -0.11 -10.79 5.36 0 5.36 0 0 4.1 0 0zm22.21 2.03c-0.05,3.25 -0.26,8.01 -0.46,10.6l-0.46 4.72 -5.31 0.09 -5.31 0.1 0.1 -4.81c0.05,-2.64 -0.1,-7.54 -0.3,-10.84l-0.41 -6.04 6.07 0.14 6.08 0.14 0 5.9 0 0zm105.1 -5.33c1.68,0.19 3.47,0.9 5.61,2.22 2.96,1.83 6.43,5.37 6.43,6.55 0,0.42 -2.5,0.61 -8.83,0.71 -4.8,0.04 -9.49,0.23 -10.36,0.33 -1.48,0.23 -1.63,0.14 -1.94,-1.23 -0.15,-0.8 -0.31,-3.3 -0.31,-5.52l0 -4 3.48 0.33c1.88,0.19 4.54,0.42 5.92,0.61l0 0zm-252.37 3.3c0,5.7 0.62,5.33 -8.52,5.33l-7.86 0 0.61 -0.99c1.18,-2.12 4.7,-5.14 6.79,-5.85 1.17,-0.42 3.27,-0.94 4.65,-1.13 4.59,-0.71 4.33,-0.9 4.33,2.64l0 0zm-1.02 12.63c0,1.32 -0.15,1.56 -0.86,1.32 -0.57,-0.18 -0.62,-0.37 -0.26,-0.51 0.36,-0.1 0.61,-0.71 0.61,-1.32 0,-0.62 0.11,-1.14 0.26,-1.14 0.15,0 0.25,0.76 0.25,1.65l0 0zm246.29 1.65c0.51,0.52 1.43,0.95 1.99,0.99 0.77,0 0.51,0.24 -0.87,0.76 -1.07,0.38 -1.99,0.66 -2.09,0.56 -0.41,-0.47 -0.71,-3.25 -0.36,-3.25 0.21,0 0.82,0.43 1.33,0.94l0 0zm-60.59 13.72c-1.73,0.9 -17.97,2.36 -36.75,3.3 -12.71,0.66 -47.11,0.33 -54,-0.52 -4.85,-0.56 -8.17,-1.36 -8.17,-1.98 0,-0.18 -0.31,-0.37 -0.72,-0.37 -0.4,0 -0.91,-0.24 -1.07,-0.47 -0.25,-0.33 15.78,-0.48 50.59,-0.43 30.22,0.05 50.58,0.24 50.12,0.47l0 0zm-100.81 1.23c-0.36,0.09 -0.97,0.09 -1.28,0 -0.35,-0.14 -0.1,-0.24 0.62,-0.24 0.71,0 0.97,0.1 0.66,0.24zm-134.25 22.3c2.96,1.27 5.62,2.35 5.93,2.35 0.25,0 0.66,0.24 0.81,0.48 0.21,0.33 -0.15,0.37 -1.12,0.18 -1.28,-0.28 -1.23,-0.14 0.87,1.42 1.94,1.46 2.65,1.7 4.85,1.7 2.34,-0.05 2.45,-0.1 1.58,-0.71 -0.97,-0.71 -0.97,-0.71 0.1,-0.71 0.61,0 3.42,0.8 6.23,1.75l5.05 1.74 -10.05 9.19c-5.57,5.09 -11.13,10.47 -12.31,11.93 -1.22,1.51 -2.34,2.73 -2.55,2.73 -0.71,0 -3.67,-16.64 -4.13,-23.57 -0.26,-4 -0.67,-8.11 -0.82,-9.1 -0.15,-0.94 -0.2,-1.74 -0.05,-1.74 0.1,0 2.65,1.04 5.61,2.36l0 0zm358.49 4.19c-0.46,7.92 -4.39,30.88 -5.16,30.17 -0.1,-0.09 -1.33,-1.55 -2.81,-3.25 -3.42,-4.01 -8.62,-8.96 -12.45,-11.93 -1.74,-1.27 -3.42,-2.82 -3.83,-3.34 -0.41,-0.57 -1.99,-2.27 -3.57,-3.82 -2.45,-2.41 -2.71,-2.83 -1.84,-2.97 3.98,-0.71 23.99,-7.64 28.33,-9.81 0.71,-0.33 1.38,-0.61 1.48,-0.66 0.1,0 0.05,2.5 -0.15,5.61l0 0zm-319.23 8.44c1.22,0.52 4.18,1.37 6.63,1.98l4.39 1.09 -2.35 1.74c-1.32,0.94 -3.77,3.06 -5.41,4.67 -2.85,2.83 -3.06,2.92 -3.88,2.07 -0.45,-0.47 -2.45,-2.4 -4.39,-4.34l-3.52 -3.44 2.81 -2.31c1.53,-1.27 2.96,-2.31 3.16,-2.31 0.16,0 1.33,0.38 2.56,0.85zm278.7 1.89l2.09 1.84 -5.56 4.95c-3.07,2.68 -6.64,5.79 -7.91,6.88l-2.3 1.93 -1.89 -2.26c-1.07,-1.27 -3.42,-3.63 -5.21,-5.28 -1.83,-1.65 -3.31,-3.11 -3.31,-3.3 0,-0.19 1.22,-0.57 2.7,-0.9 3.68,-0.7 13.58,-3.58 16.23,-4.71 1.23,-0.52 2.45,-0.94 2.66,-0.94 0.2,0 1.32,0.8 2.5,1.79l0 0zm-246.65 13.2c0.31,0.09 0.51,0.37 0.51,0.61 0,0.42 -13.06,13.77 -13.68,13.95 -0.2,0.1 -0.97,-0.33 -1.68,-0.94 -1.84,-1.51 -9.14,-9.14 -9.14,-9.62 0,-0.75 3.93,-4.47 8.93,-8.58l5.11 -4.14 4.75 4.29c2.6,2.35 4.95,4.33 5.2,4.43l0 0zm199.69 -1.46c-2.25,2.31 -5.31,5.18 -6.74,6.5l-2.6 2.36 -1.28 -1.42c-0.71,-0.8 -2.55,-2.73 -4.13,-4.38 -1.54,-1.65 -2.76,-3.06 -2.66,-3.11 0.1,-0.1 3.52,-0.71 7.61,-1.42 4.08,-0.66 8.57,-1.5 9.95,-1.88 1.43,-0.38 2.86,-0.71 3.27,-0.71 0.35,-0.05 -1.18,1.79 -3.42,4.06l0 0zm-243.53 0.94c2.24,1.98 4.03,3.77 4.03,4.01 0,0.61 -13.32,13.34 -14.19,13.48 -0.82,0.19 -8.78,-6.84 -8.78,-7.78 0,-0.66 13.73,-13.34 14.44,-13.34 0.26,0 2.3,1.65 4.5,3.63l0 0zm72.63 -1.98c6.69,1.04 7.2,1.22 8.83,2.73l1.74 1.61 -5.46 5.37c-3.02,2.97 -5.82,5.61 -6.33,5.94 -0.77,0.52 -1.64,-0.14 -6.84,-5.37 -3.27,-3.26 -5.92,-6.23 -5.92,-6.56 0,-0.99 5.25,-5.37 6.12,-5.09 0.41,0.14 3.98,0.76 7.86,1.37l0 0zm236.03 5.84c1.74,1.37 3.78,3.3 4.54,4.34 1.33,1.84 1.33,1.89 0.36,2.78 -0.51,0.47 -2.09,2.31 -3.52,4.1 -3.06,3.78 -9.9,10.52 -10.67,10.47 -0.61,-0.05 -14.45,-13.48 -15.26,-14.8 -0.36,-0.62 -0.16,-0.99 0.66,-1.51 0.66,-0.43 2.81,-2.12 4.8,-3.82 1.99,-1.65 5.46,-4.2 7.71,-5.61l4.08 -2.55 2.09 2.08c1.13,1.18 3.47,3.2 5.21,4.52l0 0zm-43.03 2.69c1.12,1.04 2.6,2.26 3.27,2.69l1.22 0.75 -4.34 4.39c-2.4,2.4 -6.07,6.08 -8.22,8.15l-3.77 3.77 -1.48 -1.65c-0.82,-0.89 -3.07,-3.34 -5.01,-5.42 -1.93,-2.07 -3.87,-4.1 -4.23,-4.52 -0.67,-0.71 -0.31,-1.18 3.01,-4.01 2.04,-1.79 5.67,-5.04 8.06,-7.31l4.34 -4.1 2.56 2.64c1.37,1.51 3.42,3.54 4.59,4.62l0 0zm-60.59 -5c-0.66,0.99 -8.22,7.08 -8.78,7.08 -0.15,0 -1.89,-1.51 -3.83,-3.3l-3.47 -3.3 3.11 -0.05c1.69,0 5.06,-0.28 7.46,-0.61 6.43,-0.95 6.22,-0.95 5.51,0.18l0 0zm-92.59 0.48c5,0.23 9.24,0.51 9.34,0.66 0.15,0.14 -1.23,1.79 -3.01,3.67 -1.74,1.94 -4.14,4.58 -5.26,5.94 -1.12,1.32 -2.3,2.41 -2.55,2.45 -0.57,0 -5.06,-4.43 -9.55,-9.38 -1.94,-2.12 -2.25,-2.78 -1.84,-3.49 0.41,-0.7 0.82,-0.84 2.1,-0.61 0.91,0.19 5.71,0.52 10.77,0.76l0 0zm49 5.18c-2.04,2.22 -4.75,4.95 -6.08,6.13l-2.39 2.12 -1.33 -1.6c-0.77,-0.9 -3.27,-3.49 -5.57,-5.75 -2.34,-2.27 -4.23,-4.34 -4.23,-4.58 0,-0.23 4.64,-0.42 11.64,-0.37l11.63 0.04 -3.67 4.01 0 0zm20.67 0.19c1.12,1.37 3.32,3.82 4.85,5.33l2.81 2.83 -1.43 2.07c-0.77,1.13 -2.09,2.59 -2.86,3.25 -0.77,0.66 -4.03,3.87 -7.25,7.17 -3.21,3.35 -6.02,6.03 -6.23,6.03 -0.2,0 -2.34,-2.07 -4.79,-4.62 -2.45,-2.5 -5.11,-4.99 -5.98,-5.51l-1.53 -0.95 9.85 -9.05c5.36,-4.99 9.96,-9.05 10.16,-9.1 0.21,0 1.28,1.14 2.4,2.55l0 0zm37.52 -0.19c1.07,1.27 3.32,3.35 4.95,4.57 1.63,1.23 2.96,2.41 2.96,2.6 0.05,0.42 -5.26,6.41 -9.29,10.46l-3.22 3.21 -4.79 -5.23c-2.66,-2.88 -5.06,-5.66 -5.26,-6.13 -0.36,-0.71 0.51,-1.75 4.8,-5.52 2.86,-2.54 5.61,-5.04 6.02,-5.47 1.23,-1.18 1.68,-0.99 3.83,1.51l0 0zm-127 3.63c1.07,1.27 4.14,4.34 6.79,6.84l4.85 4.62 -3.83 3.67c-2.09,2.03 -5.05,5 -6.63,6.65l-2.91 2.97 -2.2 -2.26c-1.22,-1.27 -4.29,-4.39 -6.79,-6.88 -5.2,-5.33 -5.31,-4.2 0.97,-10.28 2.3,-2.22 4.8,-4.81 5.57,-5.8 0.81,-0.94 1.63,-1.74 1.83,-1.74 0.21,0 1.28,0.99 2.35,2.21l0 0zm44.31 3.02c3.01,2.87 6.02,5.94 6.74,6.83l1.37 1.61 -6.12 5.98c-3.32,3.26 -6.43,6.18 -6.84,6.42 -0.61,0.37 -1.33,-0.05 -3.06,-1.84 -1.23,-1.28 -4.19,-4.15 -6.54,-6.41l-4.29 -4.15 1.23 -1.61c1.68,-2.16 11.28,-12.06 11.74,-12.06 0.2,0 2.81,2.35 5.77,5.23l0 0zm-82.85 -1.84c1.48,1.65 4.29,4.53 6.28,6.36l3.57 3.45 -4.08 3.86c-2.3,2.17 -5.41,5.19 -6.99,6.74l-2.91 2.83 -1.89 -1.93c-1.07,-1.09 -3.62,-3.73 -5.72,-5.89 -2.09,-2.17 -3.98,-4.06 -4.23,-4.11 -1.23,-0.47 0.25,-2.45 6.02,-8.06 3.52,-3.39 6.63,-6.17 6.84,-6.17 0.2,0 1.63,1.32 3.11,2.92l0 0zm-36.65 5c3.27,3.01 5.98,5.75 5.98,5.98 0,0.29 -3.12,3.45 -6.9,7.08l-6.89 6.6 -6.38 -6.09 -6.43 -6.03 1.33 -1.6c0.71,-0.85 2.96,-3.02 4.95,-4.76 1.99,-1.75 4.44,-3.96 5.46,-4.91 1.02,-0.94 2.09,-1.74 2.35,-1.79 0.31,0 3.22,2.45 6.53,5.52zm265.94 6.79c4.75,4.66 7,7.68 7,9.57 0,1.08 -3.68,6.92 -5.77,9.19 -0.87,0.89 -2.86,2.97 -4.44,4.57l-2.91 2.97 -3.22 -3.68c-1.78,-1.98 -5.51,-5.61 -8.27,-8.06 -2.75,-2.45 -4.95,-4.57 -4.9,-4.71 0.46,-0.9 16.23,-14.66 16.85,-14.66 0.35,0 2.91,2.17 5.66,4.81l0 0zm-303.71 -0.33l3.98 4 -2.45 2.78c-1.33,1.56 -2.6,2.69 -2.75,2.5 -0.41,-0.42 -3.53,-11.45 -3.53,-12.49 0,-0.47 0.16,-0.8 0.41,-0.8 0.21,0 2.15,1.79 4.34,4.01zm342.86 -1.75c0,2.22 -5.66,20.08 -6.63,21.03 -0.26,0.23 -1.07,-0.29 -1.89,-1.18 -0.77,-0.9 -2.55,-2.74 -3.93,-4.1 -2.25,-2.22 -2.45,-2.6 -1.94,-3.59 0.61,-1.27 13.27,-13.48 13.99,-13.48 0.2,0 0.4,0.61 0.4,1.32l0 0zm-80.9 6.65l5.41 4.85 -1.28 1.75c-1.78,2.36 -9.24,9.71 -11.07,10.93l-1.59 1.04 -4.84 -4.43c-2.66,-2.45 -5.26,-5 -5.77,-5.66l-0.97 -1.22 5.1 -4.86c5,-4.76 8.53,-7.63 9.24,-7.4 0.15,0.05 2.76,2.31 5.77,5zm-41.96 -0.66c1.33,1.65 3.93,4.24 5.72,5.7 1.84,1.51 3.32,2.92 3.32,3.16 0,0.24 -2.25,2.59 -4.96,5.28 -2.75,2.69 -6.58,6.51 -8.57,8.49l-3.52 3.63 -1.48 -1.56c-0.87,-0.9 -3.68,-3.68 -6.33,-6.18l-4.8 -4.57 8.83 -8.53c4.85,-4.67 8.93,-8.49 9.09,-8.49 0.15,0 1.37,1.37 2.7,3.07zm-126.38 4.57c1.32,1.37 4.18,4.15 6.38,6.18 2.19,2.02 3.98,3.72 3.98,3.77 0,0.05 -3.01,2.97 -6.69,6.46l-6.64 6.36 -2.9 -3.06c-1.59,-1.7 -4.45,-4.58 -6.33,-6.37l-3.42 -3.34 0.91 -1.37c0.77,-1.18 11.59,-11.08 12.1,-11.08 0.1,0 1.28,1.13 2.61,2.45l0 0zm44.45 3.68l6.33 6.17 -6.48 6.37c-3.57,3.49 -6.69,6.27 -6.89,6.22 -0.15,-0.09 -1.94,-1.84 -3.93,-3.91 -1.99,-2.08 -4.7,-4.72 -5.97,-5.9 -1.28,-1.13 -2.35,-2.26 -2.35,-2.49 0,-0.52 12.2,-12.59 12.71,-12.59 0.15,0 3.16,2.78 6.58,6.13l0 0zm43.95 2.54l3.32 3.11 -4.08 3.87c-2.2,2.17 -5.26,5.19 -6.79,6.69l-2.81 2.79 -2.24 -2.31c-1.28,-1.28 -4.14,-4.11 -6.33,-6.27 -4.7,-4.58 -5.16,-3.21 3.37,-11.22l5.61 -5.28 3.32 2.78c1.84,1.51 4.85,4.15 6.63,5.84l0 0zm-123.98 -1.55l5.05 4.95 -7.09 6.79c-6.18,5.94 -7.2,6.74 -7.81,6.12 -8.63,-8.62 -10.62,-10.93 -10.31,-11.73 0.15,-0.52 3.21,-3.59 6.73,-6.89 6.28,-5.79 6.43,-5.89 7.46,-5.09 0.51,0.47 3.21,3.11 5.97,5.85l0 0zm-41.96 0.8l5.51 5.09 -3.01 3.25c-3.83,4.2 -9.14,9.2 -9.7,9.2 -0.51,0 -4.44,-7.59 -5.77,-11.13l-0.91 -2.45 2.65 -2.64c1.43,-1.46 3.27,-3.54 4.03,-4.53 0.77,-1.03 1.48,-1.88 1.58,-1.88 0.06,0 2.61,2.31 5.62,5.09l0 0zm264.25 9.99c5.62,5.38 8.48,8.72 9.14,10.7 0.31,0.81 -0.81,2.08 -6.63,7.45 -5.72,5.28 -7.1,6.32 -7.46,5.71 -0.71,-1.13 -4.79,-5.61 -9.75,-10.66 -2.45,-2.45 -4.44,-4.85 -4.44,-5.37 0,-0.8 12.61,-13.44 13.27,-13.29 0.16,0.04 2.81,2.49 5.87,5.46l0 0zm40.58 -3.82c0.57,1.04 2.51,3.45 4.29,5.43 1.79,1.98 3.68,4.52 4.14,5.7l0.92 2.12 -3.02 4.1c-1.63,2.31 -4.28,5.8 -5.92,7.83l-2.91 3.63 -4.34 -4.57c-2.39,-2.55 -5.61,-5.76 -7.19,-7.17 -1.53,-1.37 -2.81,-2.73 -2.81,-3.02 0,-0.23 2.71,-3.16 6.02,-6.41 3.27,-3.25 6.64,-6.74 7.4,-7.73 0.77,-0.94 1.64,-1.74 1.89,-1.74 0.26,0 0.97,0.84 1.53,1.83l0 0zm-77.22 9.06c2.04,1.93 3.72,3.96 3.72,4.47 0,0.48 -0.41,1.47 -0.92,2.13 -1.68,2.31 -12.5,13.15 -13.06,13.1 -0.31,-0.05 -1.94,-1.46 -3.63,-3.2 -1.68,-1.7 -4.49,-4.29 -6.28,-5.71 -1.73,-1.41 -3.11,-2.83 -3.06,-3.11 0.1,-0.33 3.01,-3.44 6.53,-6.98 3.47,-3.58 6.79,-7.07 7.41,-7.87l1.02 -1.37 2.29 2.5c1.23,1.32 3.93,4.06 5.98,6.04l0 0zm-167.12 2.49c5.82,5.66 6.38,6.37 5.61,6.93 -0.46,0.38 -2.19,2.13 -3.88,3.96 -1.68,1.8 -4.34,4.53 -5.82,6.09l-2.75 2.78 -3.42 -3.3c-5.82,-5.66 -8.88,-9.05 -8.68,-9.81 0.15,-0.75 11.64,-12.87 12.2,-12.92 0.15,-0.04 3.21,2.79 6.74,6.27l0 0zm122.3 -0.33c3.42,3.3 6.17,6.13 6.17,6.27 0,0.19 -1.22,1.47 -2.65,2.88 -1.48,1.41 -4.39,4.2 -6.48,6.22 -3.73,3.63 -4.75,4.2 -5.52,2.97 -0.2,-0.37 -2.85,-3.01 -5.87,-5.89 -3.06,-2.88 -5.51,-5.37 -5.51,-5.61 0,-0.52 12.71,-12.82 13.27,-12.82 0.26,0 3.22,2.68 6.59,5.98l0 0zm-168.14 -3.15c1.02,1.17 3.78,3.96 6.12,6.17l4.24 4.06 -4.95 5.13c-2.71,2.83 -5.51,5.85 -6.28,6.75 -1.02,1.08 -1.68,1.46 -2.4,1.22 -0.51,-0.14 -3.11,-2.45 -5.71,-5.09 -2.61,-2.64 -5.16,-5.19 -5.72,-5.66 -1.18,-0.94 -1.23,-0.89 3.72,-5.75 1.84,-1.84 4.6,-4.62 6.08,-6.27 1.53,-1.6 2.81,-2.87 2.86,-2.83 0.1,0.1 1.02,1.09 2.04,2.27l0 0zm85.6 2.54c2.76,2.69 5.51,5.47 6.07,6.13l1.03 1.23 -2.45 2.68c-3.68,3.96 -9.45,9.57 -9.91,9.57 -0.41,0 -5.77,-5.04 -10.61,-9.99l-2.2 -2.22 6.07 -6.13c3.32,-3.39 6.23,-6.12 6.49,-6.17 0.25,0 2.75,2.21 5.51,4.9l0 0zm40.48 0.14c2.75,2.83 5.56,5.57 6.28,6.13l1.27 0.99 -5.1 5.38c-2.81,2.92 -5.72,5.79 -6.43,6.41l-1.28 1.08 -6.38 -6.46 -6.43 -6.46 4.69 -4.66c2.61,-2.55 5.26,-5.28 5.93,-6.04 0.66,-0.8 1.48,-1.41 1.83,-1.41 0.31,0 2.86,2.26 5.62,5.04l0 0zm111.43 24.28c0.2,0.38 -8.12,9.24 -11.54,12.35l-2.6 2.31 -5.06 -4.71c-2.8,-2.59 -5.81,-5.47 -6.73,-6.46l-1.64 -1.7 1.94 -2.21c1.13,-1.23 4.29,-4.43 7.1,-7.07l5.1 -4.81 6.64 5.98c3.62,3.3 6.69,6.13 6.79,6.32l0 0zm36.19 -5.51c3.72,3.48 6.79,6.55 6.79,6.78 0,0.29 -0.51,0.81 -1.08,1.18 -0.61,0.38 -3.77,2.97 -6.99,5.8 -3.21,2.78 -6.02,5.14 -6.23,5.23 -0.2,0.05 -1.37,-1.08 -2.55,-2.59 -1.22,-1.51 -4.18,-4.57 -6.53,-6.83l-4.34 -4.15 6.28 -5.9c3.47,-3.25 6.68,-5.89 7.09,-5.89 0.41,0 3.78,2.88 7.56,6.37l0 0zm-84.63 0.75c3.67,3.39 6.68,6.55 6.68,6.98 0,0.47 -0.76,1.46 -1.63,2.21 -0.92,0.76 -3.98,3.59 -6.74,6.27l-5.1 4.91 -6.79 -6.46c-3.73,-3.54 -6.79,-6.65 -6.79,-6.93 0,-0.29 2.4,-2.78 5.31,-5.57 2.96,-2.73 5.87,-5.56 6.43,-6.31 0.61,-0.71 1.28,-1.28 1.53,-1.28 0.21,0 3.42,2.79 7.1,6.18zm-122.31 1.65l5.98 5.7 -3.68 3.73c-2.04,2.03 -5.1,5.04 -6.79,6.65l-3.06 3.01 -6.23 -6.17c-3.47,-3.4 -6.28,-6.37 -6.28,-6.65 0,-0.24 2.2,-2.59 4.9,-5.23 2.66,-2.69 5.52,-5.66 6.23,-6.6 1.28,-1.61 1.43,-1.7 2.2,-0.95 0.41,0.43 3.47,3.35 6.73,6.51l0 0zm40.53 -0.24l6.74 6.37 -2.04 1.88c-1.17,0.99 -4.03,3.92 -6.43,6.42 -2.35,2.54 -4.6,4.62 -4.95,4.62 -0.56,0 -12.56,-11.84 -12.97,-12.78 -0.1,-0.19 2.04,-2.55 4.8,-5.23 2.71,-2.69 5.51,-5.57 6.28,-6.37 0.71,-0.85 1.43,-1.51 1.58,-1.41 0.15,0.05 3.32,2.97 6.99,6.5l0 0zm-82.33 0.15l6.99 6.27 -3.47 3.11c-1.89,1.69 -4.95,4.71 -6.79,6.64 -1.83,1.98 -3.72,3.59 -4.18,3.59 -0.46,0 -2.81,-2.08 -5.16,-4.62 -2.4,-2.5 -5.15,-5.28 -6.17,-6.18l-1.84 -1.6 4.23 -4.06c2.3,-2.21 5.31,-5.28 6.69,-6.78 1.43,-1.47 2.6,-2.69 2.6,-2.69 0.06,0 3.27,2.83 7.1,6.32l0 0zm122 -0.52c3.52,3.16 6.43,5.94 6.43,6.13 0,0.61 -11.9,12.11 -12.51,12.11 -0.46,0 -9.49,-8.25 -11.69,-10.65 -0.87,-1.04 -0.81,-1.09 2.81,-4.95 3.52,-3.73 8.22,-8.44 8.42,-8.44 0.1,0 3.01,2.59 6.54,5.8zm104.79 17.35c3.21,2.97 6.23,6.08 6.63,6.93 0.72,1.55 0.67,1.65 -1.22,3.53 -1.07,1.09 -2.71,2.92 -3.62,4.15 -2.2,2.83 -9.6,8.91 -10.93,8.91 -0.15,0 -1.07,-1.13 -1.94,-2.5 -0.92,-1.32 -3.72,-4.38 -6.28,-6.79l-4.59 -4.33 0.87 -1.23c0.46,-0.66 3.62,-3.82 6.99,-6.98 3.37,-3.16 6.23,-6.22 6.38,-6.79 0.41,-1.46 0.82,-1.22 7.71,5.1l0 0zm-35.12 8.81c0.46,0.76 -0.56,1.93 -6.64,7.78l-7.09 6.84 -6.84 -6.65c-5.77,-5.66 -6.74,-6.84 -6.28,-7.45 0.36,-0.42 3.47,-3.63 6.89,-7.12l6.33 -6.36 6.54 6.03c3.62,3.35 6.83,6.46 7.09,6.93zm-88.36 -5.23c2.86,2.59 5.21,5.04 5.21,5.42 0,0.71 -12.46,13.34 -13.12,13.34 -0.25,0 -3.27,-2.69 -6.74,-6.03l-6.28 -5.99 0.92 -1.32c0.46,-0.71 3.53,-3.87 6.79,-7.02l5.87 -5.71 1.07 1.23c0.57,0.7 3.37,3.44 6.28,6.08l0 0zm38.85 -1.79c3.32,3.06 6.43,6.13 6.89,6.79 0.87,1.17 0.82,1.22 -1.58,3.67 -1.33,1.42 -4.34,4.34 -6.64,6.56l-4.19 3.96 -1.12 -1.37c-0.66,-0.8 -3.16,-3.35 -5.56,-5.66 -5.87,-5.66 -6.94,-7.07 -6.03,-8.15 1.69,-1.98 11.39,-11.41 11.74,-11.41 0.26,0 3.17,2.5 6.49,5.61zm-126.39 -3.3c0.82,0.99 3.73,3.86 6.48,6.41l5.01 4.62 -4.7 4.76c-2.55,2.64 -5.72,5.99 -6.94,7.45 -1.28,1.51 -2.4,2.73 -2.55,2.73 -0.87,0 -13.27,-12.91 -13.27,-13.86 0,-0.42 13.78,-13.81 14.29,-13.9 0.15,0 0.92,0.8 1.68,1.79l0 0zm39.66 -1.46c0,0.23 2.25,2.49 5.01,5.09 2.7,2.54 5.61,5.47 6.38,6.41l1.43 1.74 -2.45 2.27c-1.38,1.22 -4.45,4.19 -6.79,6.55l-4.34 4.29 -6.79 -6.55c-4.9,-4.67 -6.69,-6.7 -6.38,-7.17 0.2,-0.38 3.16,-3.44 6.53,-6.84 5.52,-5.51 7.4,-6.97 7.4,-5.79l0 0zm67.89 26.96c5.92,5.47 5.77,4.72 1.99,8.39 -1.78,1.75 -4.74,4.86 -6.53,6.89l-3.27 3.77 -1.32 -1.61c-0.72,-0.89 -3.37,-3.63 -5.82,-6.12 -2.51,-2.46 -4.7,-4.81 -4.96,-5.19 -0.25,-0.52 1.38,-2.5 6.08,-7.21l6.43 -6.46 1.79 1.98c0.97,1.13 3.52,3.63 5.61,5.56zm-40.37 1.04c5.61,5.37 5.82,3.96 -1.84,12.16 -7.81,8.3 -6.23,8.2 -12.86,0.61 -3.12,-3.58 -5.67,-6.83 -5.67,-7.26 0,-0.37 2.81,-3.63 6.28,-7.16l6.23 -6.46 1.53 1.79c0.81,0.94 3.67,3.82 6.33,6.32zm-35.94 5.51c0.26,0.85 -0.15,1.56 -2.4,3.73 -1.48,1.46 -3.21,3.3 -3.83,4.1l-1.07 1.37 -3.67 -1.32c-3.68,-1.32 -13.79,-7.17 -13.79,-7.92 0,-0.66 4.96,-6.46 8.33,-9.81l3.11 -3.06 6.48 5.94c3.52,3.25 6.64,6.36 6.84,6.97l0 0zm111.02 -12.68c0,0.29 2.5,2.88 5.51,5.8 3.07,2.92 5.82,5.8 6.18,6.41 0.61,1.04 0.41,1.32 -3.42,4.95 -2.24,2.08 -5.1,5.24 -6.38,7.03l-2.25 3.16 -2.24 -2.93c-1.23,-1.65 -4.34,-5.09 -6.99,-7.63l-4.75 -4.72 1.94 -1.88c1.07,-1.09 3.98,-3.92 6.53,-6.32 4.24,-4.01 5.87,-5.09 5.87,-3.87l0 0zm43.64 3.16c3.99,4.06 7.92,8.72 7.92,9.34 -0.05,1.08 -11.08,6.08 -17.61,7.96 -1.53,0.43 -7.71,-5.89 -7,-7.12 0.51,-0.84 12.92,-13.2 13.38,-13.29 0.15,-0.05 1.63,1.37 3.32,3.11l-0.01 0zm-145.88 19.52c2.55,2.69 4.7,5.04 4.7,5.23 0.05,0.24 -0.31,0.38 -0.77,0.38 -0.97,0 -8.32,-2.12 -10.72,-3.07 -1.53,-0.61 -1.53,-0.66 -1.22,-2.92 0.56,-3.49 1.48,-5.09 2.8,-4.71 0.26,0.09 2.61,2.35 5.21,5.09l0 0zm88.05 4.29c1.69,1.79 2.86,3.2 2.61,3.2 -0.21,0 -2.45,0.33 -5.01,0.66 -2.5,0.38 -7.7,0.85 -11.48,1.04l-6.89 0.28 1.83 -1.79c2.25,-2.31 5.67,-6.13 8.84,-9.99l2.45 -3.02 2.29 3.25c1.28,1.75 3.68,4.62 5.36,6.37l0 0zm35.68 -7.78c-0.41,0.71 -0.05,1.23 1.79,2.88l2.3 1.98 -1.94 0.75c-2.05,0.8 -11.49,3.06 -11.74,2.83 -0.21,-0.19 9.29,-9.24 9.69,-9.24 0.26,0 0.21,0.38 -0.1,0.8l0 0zm-81.52 3.06c1.13,1.61 3.63,4.48 5.57,6.37 1.99,1.88 3.47,3.53 3.37,3.63 -0.56,0.52 -21.9,-1.46 -21.9,-2.03 0,-0.19 1.63,-1.79 3.62,-3.58 1.99,-1.84 4.29,-4.2 5.11,-5.33 0.87,-1.08 1.68,-1.98 1.89,-1.98 0.2,0 1.27,1.32 2.34,2.92zm120.67 9.57c0.21,7.5 0.31,7.31 -4.13,7.31 -1.99,0 -6.54,-0.33 -10.06,-0.71 -3.52,-0.37 -7.6,-0.7 -9.13,-0.7 -2.25,0 -2.61,-0.1 -2.15,-0.66 0.31,-0.33 1.64,-0.99 2.96,-1.46 1.33,-0.48 5.82,-2.55 10.06,-4.62 8.11,-3.96 9.65,-4.58 11.28,-4.44 0.92,0.1 1.02,0.48 1.17,5.28zm-198.56 -1.17c7.3,3.39 8.17,3.96 5.72,3.48 -0.97,-0.14 -2.04,-0.47 -2.35,-0.7 -0.31,-0.24 -1.23,-0.14 -2.14,0.14 -1.38,0.52 -1.64,0.85 -1.64,2.12 0,1.37 -0.15,1.56 -1.38,1.56 -0.81,0 -1.78,-0.24 -2.19,-0.48 -0.56,-0.33 -0.36,-0.47 0.92,-0.47 0.87,0 1.63,-0.23 1.63,-0.52 0,-0.33 -0.71,-0.42 -1.89,-0.33 -1.99,0.24 -4.23,-0.37 -4.23,-1.17 0,-0.24 -0.36,-0.33 -0.77,-0.15 -0.61,0.19 -0.77,-0.23 -0.77,-2.35 0,-1.98 0.21,-2.64 0.87,-2.88 0.46,-0.19 0.97,-0.05 1.07,0.24 0.21,0.61 1.64,0.8 1.64,0.19 0,-0.19 -0.26,-0.62 -0.61,-0.95 -1.13,-1.03 0.05,-0.61 6.12,2.27l0 0zm11.84 5.18c0.67,0.38 0.67,0.47 -0.1,0.47 -0.46,0 -1.02,-0.23 -1.17,-0.47 -0.41,-0.61 0.25,-0.61 1.27,0l0 0z"/>
    <path class="fil1" d="M289.19 25.88c-2.85,0.94 -1.07,3.63 2.45,3.77 2.25,0.05 4.29,-0.75 4.29,-1.74 0,-0.99 -2.5,-2.6 -4.03,-2.55 -0.72,0 -1.94,0.24 -2.71,0.52z"/>
    <path class="fil1" d="M306.55 25.83c-1.07,0.57 -1.23,2.31 -0.31,3.16 0.61,0.57 5.31,0.8 6.74,0.28 1.17,-0.42 0.97,-2.35 -0.31,-3.2 -1.27,-0.85 -4.79,-0.99 -6.12,-0.24z"/>
    <path class="fil1" d="M108.34 81.84c-5.61,1.37 -9.44,5.75 -9.44,10.84 0,2.69 0.56,3.21 4.19,3.63 1.53,0.19 3.11,-0.05 5.25,-0.71 1.64,-0.56 6.74,-1.41 11.29,-1.93 11.43,-1.27 12.3,-1.7 10.71,-4.81 -1.02,-1.93 -5.81,-5.47 -8.67,-6.41 -2.4,-0.75 -11.08,-1.18 -13.33,-0.61z"/>
    <path class="fil1" d="M262.85 86.46c-1.27,0.23 -3.16,2.64 -3.16,4.05 0,0.52 0.77,1.6 1.74,2.5 1.42,1.32 2.09,1.6 3.98,1.6 2.04,0 4.18,-0.89 5.1,-2.07 0.72,-0.94 0.41,-3.49 -0.46,-4.48 -0.51,-0.56 -1.84,-1.22 -2.96,-1.46 -2.14,-0.47 -2.3,-0.47 -4.24,-0.14z"/>
    <path class="fil1" d="M340.44 86.46c-1.33,0.23 -2.5,1.74 -2.96,3.72 -0.2,1.13 0,1.75 0.97,2.78 1.02,1.13 1.69,1.37 4.24,1.56 2.75,0.19 3.21,0.05 4.69,-1.09 2.05,-1.55 2.2,-3.81 0.51,-5.65 -0.91,-0.94 -1.78,-1.27 -3.72,-1.37 -1.38,-0.14 -3.06,-0.09 -3.73,0.05l0 0z"/>
    <path class="fil1" d="M240.4 87.68c-1.64,1.61 -1.59,4.77 0.15,5.8 1.43,0.85 4.75,1.37 6.48,0.99 3.42,-0.8 4.65,-4.48 2.2,-6.69 -1.02,-0.99 -1.69,-1.18 -4.5,-1.18 -2.7,0 -3.42,0.19 -4.33,1.08l0 0z"/>
    <path class="fil1" d="M282.81 87.31c-1.37,0.89 -2.04,3.67 -1.17,5.14 1.02,1.79 3.32,2.78 5.77,2.4 2.96,-0.47 4.95,-2.26 4.95,-4.43 0,-1.98 -0.36,-2.55 -1.89,-3.3 -1.63,-0.76 -6.33,-0.66 -7.66,0.19l0 0z"/>
    <path class="fil1" d="M302.87 87.59c-1.78,1.27 -1.83,4.05 -0.15,5.52 2.14,1.83 7.66,1.03 9.04,-1.28 0.81,-1.46 0.61,-2.4 -0.97,-3.86 -1.28,-1.13 -1.94,-1.37 -4.04,-1.37 -1.78,0 -2.91,0.28 -3.88,0.99l0 0z"/>
    <path class="fil1" d="M320.18 87.78c-2.81,2.54 -0.61,6.83 3.52,6.83 2.45,0 4.54,-1.03 5.31,-2.59 0.92,-1.84 0.76,-2.54 -0.87,-4.05 -1.28,-1.13 -1.89,-1.37 -4.13,-1.37 -2.1,0 -2.86,0.24 -3.83,1.18l0 0z"/>
    <path class="fil1" d="M222.94 88.34c-1.28,1.56 -1.12,4.25 0.36,5.19 1.94,1.32 7.24,0.28 8.01,-1.51 0.56,-1.41 0.31,-3.44 -0.51,-4.19 -0.51,-0.52 -1.74,-0.76 -3.78,-0.76 -2.65,0 -3.11,0.14 -4.08,1.27l0 0z"/>
    <path class="fil1" d="M80.01 340.32c-2.6,1.65 -3.06,3.25 -1.58,5.75 0.62,1.13 1.74,2.31 2.4,2.59 1.69,0.71 8.37,0.66 12.25,-0.09 4.19,-0.8 5.62,-1.79 6.38,-4.2 0.36,-1.13 0.87,-2.31 1.13,-2.64 0.25,-0.33 0.4,-0.66 0.3,-0.75 -0.46,-0.38 -8.78,-1.32 -13.73,-1.56 -5,-0.18 -5.46,-0.14 -7.14,0.9l-0.01 0z"/>
    <path class="fil1" d="M360.4 339.8c-2.14,0.57 -3.01,2.78 -2.09,5.42 0.97,2.74 3.01,3.49 10.56,3.82l6.13 0.28 2.09 -1.88c2.66,-2.45 2.71,-4.1 0.31,-6.46l-1.69 -1.7 -6.84 0.05c-3.77,0 -7.55,0.24 -8.47,0.47z"/>
    <path class="fil1" d="M62.15 341.5c-5.51,0.89 -8.42,1.65 -9.75,2.54 -1.48,0.95 -1.53,1.09 -1.23,3.68 0.57,4.34 0.52,4.29 3.48,4.29 2.7,0 8.16,-0.99 10.72,-1.98 2.7,-0.99 3.87,-5.37 2.04,-7.35 -0.97,-1.04 -3.17,-1.51 -5.26,-1.18l0 0z"/>
    <path class="fil1" d="M390.06 342.3c-1.74,0.71 -2.35,2.03 -1.89,4.1 0.71,3.4 4.64,5 13.58,5.47l5.51 0.28 1.22 2.27c1.59,2.78 2.96,3.72 5.67,3.72 1.84,0 2.4,-0.28 4.24,-2.12 2.29,-2.31 2.65,-3.96 1.32,-6.37 -1.02,-1.83 -3.26,-2.82 -6.84,-3.15 -1.94,-0.19 -3.88,-0.81 -6.07,-1.89 -5.21,-2.64 -13.17,-3.72 -16.74,-2.31z"/>
    <path class="fil1" d="M40.15 347.44c-2.45,1.51 -3.47,4.29 -2.45,6.74 0.97,2.36 3.52,3.96 6.23,3.96 3.88,0 7.04,-4.71 5.25,-7.92 -2.04,-3.63 -5.76,-4.81 -9.03,-2.78l0 0z"/>
    <path class="fil1" d="M379.9 372.28c-0.66,0.24 -0.72,0.43 -0.26,0.43 0.41,0 1.23,-0.19 1.79,-0.43 0.66,-0.23 0.72,-0.42 0.26,-0.42 -0.41,0 -1.23,0.19 -1.79,0.42z"/>
    <path class="fil1" d="M189.05 385.91c-0.77,0.47 -1.94,0.75 -2.61,0.61 -0.92,-0.14 -1.27,0 -1.27,0.56 0,0.43 -0.82,1.56 -1.79,2.6 -0.97,0.99 -1.79,2.26 -1.79,2.78 0,1.13 3.12,4.34 4.19,4.34 0.41,0 1.53,0.33 2.4,0.75l1.68 0.75 2.04 -1.79c4.04,-3.63 4.65,-6.36 1.89,-8.95 -2.5,-2.41 -3.11,-2.64 -4.74,-1.65l0 0z"/>
    <path class="fil1" d="M204.36 386c-1.38,0.19 -2.71,0.66 -2.91,0.99 -0.26,0.33 -0.46,2.36 -0.46,4.43 0,4.57 0.66,5.66 3.98,6.37 2.5,0.51 4.8,-0.19 6.48,-1.89 1.48,-1.56 1.74,-6.93 0.41,-8.49 -1.17,-1.32 -4.08,-1.88 -7.5,-1.41l0 0z"/>
    <path class="fil1" d="M250.55 386.71c-1.78,2.12 -1.32,3.58 1.69,4.99l2.09 1.04 -2.04 0.52c-1.63,0.42 -2.09,0.8 -2.2,1.74 -0.35,2.79 5.47,4.39 8.02,2.22 2.14,-1.88 2.75,-5.56 1.38,-8.63 -0.97,-2.16 -2.66,-3.11 -5.47,-3.11 -1.99,0 -2.6,0.24 -3.47,1.23l0 0z"/>
    <path class="fil1" d="M267.6 386.75c-1.22,1.14 -1.78,2.74 -1.78,5.28 0,2.69 1.12,4.25 3.87,5.47 1.59,0.66 2.2,0.71 3.83,0.29 2.2,-0.62 4.55,-2.93 4.55,-4.44 0,-1.6 -2.3,-5.75 -3.63,-6.64 -1.58,-0.99 -5.71,-0.99 -6.84,0.04z"/>
    <path class="fil1" d="M235.44 387.46c-1.48,1.09 -2.8,3.49 -2.8,5.14 0,3.06 3.52,6.08 6.28,5.42 1.83,-0.42 4.18,-2.36 4.95,-4.05 1.37,-3.11 -1.74,-7.55 -5.31,-7.55 -0.97,0 -2.3,0.43 -3.12,1.04z"/>
    <path class="fil1" d="M220.59 387.46c-2.04,0.61 -3.01,2.26 -3.01,5.19 0,2.02 0.2,2.5 1.68,3.72 2.35,1.93 5.06,1.89 7.2,-0.09 2.55,-2.36 2.04,-4.62 -1.58,-7.03 -1.89,-1.27 -1.99,-1.41 -0.87,-1.46 0.66,0 1.69,-0.19 2.25,-0.42 1.48,-0.62 -3.68,-0.52 -5.67,0.09l0 0z"/>
   </g>
  </g>
 </g>
</svg>
