<?xml version="1.0" encoding="UTF-8"?>
<!DOCTYPE svg PUBLIC "-//W3C//DTD SVG 1.1//EN" "http://www.w3.org/Graphics/SVG/1.1/DTD/svg11.dtd">
<!-- Creator: CorelDRAW (Evaluation Version) -->
<svg xmlns="http://www.w3.org/2000/svg" xml:space="preserve" width="271.611mm" height="120mm" version="1.1" style="shape-rendering:geometricPrecision; text-rendering:geometricPrecision; image-rendering:optimizeQuality; fill-rule:evenodd; clip-rule:evenodd"
viewBox="0 0 27161.06 12000"
 xmlns:xlink="http://www.w3.org/1999/xlink"
 xmlns:xodm="http://www.corel.com/coreldraw/odm/2003">
 <defs>
  <style type="text/css">
   <![CDATA[
    .str0 {stroke:#EF8126;stroke-width:100;stroke-miterlimit:22.9256}
    .str1 {stroke:#214360;stroke-width:20;stroke-miterlimit:22.9256}
    .fil14 {fill:#FEFEFE}
    .fil13 {fill:#B6B6B7}
    .fil18 {fill:#F7BB8E}
    .fil15 {fill:#EF8126}
    .fil16 {fill:#B8C9D4}
    .fil12 {fill:#95AEC4}
    .fil17 {fill:#89A7B6}
    .fil19 {fill:#687A95}
    .fil0 {fill:#214360}
    .fil11 {fill:#214360}
    .fil7 {fill:#009198;fill-rule:nonzero}
    .fil6 {fill:#00B493;fill-rule:nonzero}
    .fil5 {fill:#422D51;fill-rule:nonzero}
    .fil10 {fill:#9E6235;fill-rule:nonzero}
    .fil1 {fill:#CE9B9B;fill-rule:nonzero}
    .fil9 {fill:#FCA054;fill-rule:nonzero}
    .fil4 {fill:white;fill-rule:nonzero}
    .fil8 {fill:black;fill-rule:nonzero;fill-opacity:0.239216}
    .fil2 {fill:white;fill-rule:nonzero;fill-opacity:0.639216}
    .fil3 {fill:white;fill-rule:nonzero;fill-opacity:0.800000}
   ]]>
  </style>
 </defs>
 <g id="Layer_x0020_1">
  <metadata id="CorelCorpID_0Corel-Layer"/>
  <g id="_1487284678928">
   <g>
    <path class="fil0 str0" d="M2666.69 1629.45l-261.35 0.19c-30.56,9.35 -177.58,2.85 -221.32,2.86 -39.48,0.01 -78.91,-0.2 -118.39,-0.44 -56.38,-0.33 -49.69,-2.7 -96.33,20.35l-8 6.28 -10.27 5.76 -7.18 8.21c0.48,11.74 3.31,9.34 -6.92,8.83l-5.33 9.14c-19.52,63.56 -38.6,89.38 -10.69,158.76 20.1,49.98 47.91,71.49 95.21,88.03 69.04,24.15 2363.89,-10.33 2430.94,14.34 1.77,42.11 -125.56,124.24 -162.57,155.83 -56.37,48.12 -112.91,97.59 -169.35,145.15 -185.01,155.89 11.73,393.39 166.17,284.64l690.45 -582.52c62.62,-66.05 53.43,-168.35 -1.02,-235.14 -38.27,-46.95 -115.7,-108.79 -163.02,-151.61 -77.09,-69.74 -436.07,-423.54 -519.1,-439.53 -79.3,-15.27 -159.47,43.74 -170.78,131.48 -24.14,187.34 245.1,260.68 272.83,371.12l-1723.98 -1.73z"/>
    <path class="fil0 str0" d="M4894.42 3034.8c-8.31,-100.67 -70.31,-181.93 -115.08,-261.8 -106.98,86.88 -163.99,64.26 -293.93,64.3l-1738.96 -3.53c-87.47,-0.45 -263.21,-16.94 -338.59,-3.11 -97.57,17.9 -155.11,137.41 -104.95,232.39 56.05,106.16 170.18,84.27 265.91,84.85 115.88,0.72 231.91,0.95 347.8,1.27 231.87,0.63 463.73,0.4 695.6,0.75 231.85,0.35 463.74,0.09 695.59,0.08 175.81,-0.02 453.67,34.34 586.61,-115.2z"/>
    <path class="fil0 str0" d="M1528.34 2421.37c26.33,150.86 222.32,114.97 389.28,115.21l984.2 -0.44c115.06,-0.35 368.99,47.86 353.63,-144.66 -7.44,-93.14 -74.48,-112.16 -146.41,-111.81l-732.62 0.52c-165.28,0.41 -330.52,0.14 -495.79,-0.11 -78.39,-0.11 -167.65,-4.03 -244.68,-0.15 -66.85,3.37 -120.05,70.16 -107.61,141.44z"/>
   </g>
   <g>
    <g>
     <g>
      <g>
       <g>
        <g>
         <g>
          <path class="fil1" d="M5933.55 11210.24l-4719.79 0c-9.25,0 -16.19,7.51 -16.19,17.52 0,10.02 6.94,17.53 16.19,17.53l4722.1 0c0,-2.51 0,-5.01 0,-5.01 0,-7.51 0,-20.03 -2.31,-30.04z"/>
         </g>
        </g>
       </g>
      </g>
     </g>
     <g>
      <g>
       <g>
        <g>
         <g>
          <path class="fil1" d="M26231.28 11218.56l-4719.79 0c-9.24,0 -16.18,7.51 -16.18,17.52 0,10.01 6.94,17.52 16.18,17.52l4722.11 0c0,-2.5 0,-5 0,-5 0,-7.51 0,-20.03 -2.32,-30.04z"/>
         </g>
        </g>
       </g>
      </g>
     </g>
     <g>
      <g>
       <g>
        <g>
         <polygon class="fil2" points="2686.83,5980.34 2708.33,5957.59 2551.53,5783.94 2530.03,5806.69 "/>
        </g>
       </g>
      </g>
      <g>
       <g>
        <g>
         <polygon class="fil3" points="2547.14,5973.85 2709.63,5806.46 2688.9,5782.89 2526.41,5950.27 "/>
        </g>
       </g>
      </g>
     </g>
     <g>
      <g>
       <g>
        <path class="fil4" d="M3463.81 3660.01c-2.32,0 -4.62,0 -6.94,-2.5l-161.87 -112.65c-6.94,-5.01 -9.25,-15.03 -4.63,-22.53 4.63,-7.52 13.88,-10.01 20.81,-5.01l161.88 112.65c6.94,5.01 9.25,15.03 4.62,22.53 -4.62,5.01 -9.25,7.51 -13.87,7.51z"/>
       </g>
      </g>
      <g>
       <g>
        <path class="fil4" d="M3549.38 3582.41c-6.94,0 -11.57,-5.01 -13.88,-12.52l-53.19 -187.76c-2.31,-7.51 2.32,-17.52 9.25,-20.03 6.94,-2.5 16.19,2.51 18.5,10.01l53.19 187.76c2.31,7.51 -2.32,17.52 -9.25,20.03 -2.32,2.51 -2.32,2.51 -4.62,2.51z"/>
       </g>
      </g>
      <g>
       <g>
        <path class="fil4" d="M3690.43 3549.87l0 0c-9.24,0 -16.18,-7.51 -13.88,-17.52l9.25 -195.27c0,-10.01 6.94,-15.03 16.19,-15.03 9.24,0 13.88,7.52 13.88,17.53l-9.25 195.26c-2.31,7.52 -6.94,15.03 -16.19,15.03z"/>
       </g>
      </g>
      <g>
       <g>
        <path class="fil4" d="M3246.44 3790.2c-9.25,0 -13.88,-7.52 -13.88,-15.03 0,-10.01 6.94,-15.02 13.88,-15.02l189.62 -2.51 0 0c9.25,0 13.88,7.51 13.88,15.02 0,10.01 -6.94,15.03 -13.88,15.03l-189.62 2.51 0 0z"/>
       </g>
      </g>
     </g>
     <g>
      <g>
       <g>
        <g>
         <g>
          <g>
           <g>
            <path class="fil5" d="M5095.71 9947.82c0,52.57 -252.07,97.64 -561.94,97.64 -309.87,0 -561.94,-45.07 -561.94,-97.64 0,-52.56 259,-62.58 571.19,-62.58 307.56,0 552.69,10.01 552.69,62.58z"/>
           </g>
          </g>
         </g>
        </g>
       </g>
       <g>
        <g>
         <g>
          <g>
           <g>
            <path class="fil6" d="M5574.39 7434.42c0,0 0,5 0,15.02 -4.62,117.66 -57.81,918.75 -483.31,1599.67 -460.18,738.5 -217.37,1016.38 -217.37,1016.38l-268.26 -0.01c0,0 117.94,-2162.93 957.38,-2623.55 4.62,-2.51 6.94,-5.01 11.56,-7.51z"/>
           </g>
          </g>
         </g>
        </g>
       </g>
       <g>
        <g>
         <g>
          <g>
           <g>
            <g>
             <path class="fil7" d="M5574.39 7434.42c0,0 0,5 0,15.02 -43.93,80.11 -326.06,588.3 -578.12,1234.18 -282.12,723.48 -228.94,1299.26 -228.94,1304.26 0,5.01 -2.32,7.52 -6.94,7.52l0 0c-2.32,0 -6.94,-2.51 -6.94,-7.52 0,-5 -55.5,-585.79 228.94,-1311.77 254.37,-648.38 536.49,-1159.07 580.43,-1236.68 4.63,-0.01 6.95,-2.51 11.57,-5.01z"/>
            </g>
           </g>
          </g>
         </g>
        </g>
       </g>
       <g>
        <g>
         <g>
          <g>
           <g>
            <path class="fil8" d="M4702.58 9261.89l138.75 325.45c0,0 -46.25,197.76 -30.06,287.88 16.18,92.63 23.12,115.16 23.12,115.16l-78.62 0 -62.44 -680.92 9.25 -47.57z"/>
           </g>
          </g>
         </g>
        </g>
       </g>
       <g>
        <g>
         <g>
          <g>
           <g>
            <path class="fil6" d="M4596.21 10065.48l-231.25 0c0,0 -127.18,-688.43 -663.68,-1221.66 -6.94,-7.51 -9.25,-17.52 -6.94,-25.03 0,-5.01 2.32,-10.01 6.94,-12.52 6.94,-7.51 16.19,-12.52 25.44,-10.01 124.87,25.03 388.49,122.67 665.99,498.17 388.5,520.71 203.5,771.05 203.5,771.05z"/>
           </g>
          </g>
         </g>
        </g>
       </g>
       <g>
        <g>
         <g>
          <g>
           <g>
            <path class="fil6" d="M4841.33 10100.53l-224.31 0c0,0 -37,-115.16 -224.32,-808.6 -173.44,-643.37 210.44,-1659.75 263.63,-1799.93l0 0c4.62,-10.01 6.94,-15.02 6.94,-15.02 2.32,0 4.62,-2.51 6.94,-2.51 90.19,-30.04 249.75,490.66 117.94,918.74 -254.38,838.64 53.18,1707.32 53.18,1707.32z"/>
           </g>
          </g>
         </g>
        </g>
       </g>
       <g>
        <g>
         <g>
          <g>
           <g>
            <g>
             <path class="fil7" d="M4681.77 10040.44c2.32,5.01 0,7.52 -4.62,10.01l-2.32 0.01c-2.31,0 -4.62,-2.5 -6.94,-5 -108.68,-310.42 -228.93,-996.35 -108.68,-1619.69 101.75,-538.23 101.75,-858.66 99.44,-931.26l0 0c4.62,-10.01 6.94,-15.03 6.94,-15.03 2.31,0 4.62,-2.5 6.94,-2.5l0 2.5c0,2.51 18.5,335.46 -99.44,951.29 -117.94,618.33 -0.01,1301.75 108.68,1609.67z"/>
            </g>
           </g>
          </g>
         </g>
        </g>
       </g>
       <g>
        <g>
         <g>
          <g>
           <g>
            <g>
             <path class="fil7" d="M4496.77 10017.92c0,5 -2.31,7.51 -6.94,7.51l0 0c-4.62,0 -6.94,-2.51 -6.94,-7.51 -60.12,-748.51 -758.49,-1181.6 -788.56,-1199.12 0,-5.01 2.32,-10.01 6.94,-12.52 23.13,12.52 733.06,450.61 795.5,1211.64z"/>
            </g>
           </g>
          </g>
         </g>
        </g>
       </g>
       <g>
        <g>
         <g>
          <g>
           <g>
            <path class="fil9" d="M5095.71 9947.82l-18.51 192.77 -2.31 17.52 -13.88 155.21 -2.32 17.52 -78.63 861.17 -931.91 0 -55.5 -861.17 0 -17.52 -9.25 -160.22 0 -17.52 -11.56 -185.25c0,0 161.88,40.05 571.18,40.05 430.12,-2.51 552.69,-42.56 552.69,-42.56z"/>
           </g>
          </g>
         </g>
        </g>
       </g>
      </g>
      <g>
       <g>
        <g>
         <path class="fil10" d="M5077.2 10140.59l-2.31 17.52c-178.07,30.04 -351.5,40.05 -511.06,40.05 -235.88,0 -441.69,-22.53 -582.75,-45.07l0 -17.52c238.19,35.06 654.44,75.11 1096.12,5.02z"/>
        </g>
       </g>
      </g>
      <g>
       <g>
        <g>
         <path class="fil10" d="M5063.33 10310.81l-2.31 17.52c-180.38,30.04 -356.13,40.05 -515.69,40.05 -219.68,0 -411.62,-20.03 -550.37,-40.05l0 -17.52c240.5,35.05 640.56,70.1 1068.37,0z"/>
        </g>
       </g>
      </g>
     </g>
     <g>
      <g>
       <path class="fil3" d="M3695.06 7012.05c-39.32,0 -69.38,-35.05 -69.38,-75.11 0,-42.55 32.37,-75.1 69.38,-75.1 39.31,0 69.38,35.04 69.38,75.1 0,40.06 -30.07,75.11 -69.38,75.11zm0 -120.16c-23.13,0 -41.63,20.03 -41.63,45.06 0,25.04 18.5,45.07 41.63,45.07 23.12,0 41.63,-20.03 41.63,-45.07 0,-25.03 -18.51,-45.06 -41.63,-45.06z"/>
      </g>
     </g>
     <g>
      <g>
       <path class="fil3" d="M2740 2238.09c-53.18,0 -99.44,-47.56 -99.44,-107.64 0,-57.58 43.94,-107.65 99.44,-107.65 53.18,0 99.43,47.56 99.43,107.65 -2.3,60.08 -46.24,107.64 -99.43,107.64zm0 -180.24c-37,0 -69.38,32.54 -69.38,75.1 0,40.05 30.07,75.11 69.38,75.11 37,0 69.38,-32.55 69.38,-75.11 -2.32,-42.56 -32.38,-75.1 -69.38,-75.1z"/>
      </g>
     </g>
    </g>
   </g>
   <g>
    <path class="fil11" d="M3449.45 7055.14l-19.73 8.14 -1.64 255.54 21.37 8.76c9.26,103.12 6.92,161.1 27.06,266.2 50.44,263.2 116.27,489.67 162.62,722.82 53.44,268.74 126.04,476.07 144.36,735.3 3.75,53.01 16.85,76.41 25.48,123.63l39.7 708.47c1.92,54.77 9.55,73.65 18.44,123.53l19.23 435.05c8.45,81.4 -13.98,196.88 49.35,241.05 27.86,19.42 67.34,29.91 98.61,41.6 36.46,13.62 58.49,34.11 91.71,49.32 109.4,50.09 277.75,155.16 259.79,316.11 -10.14,90.92 -63.96,117.45 -129.33,154.39 -73.94,41.76 -411.84,24.04 -514.21,24.03 -68.58,-0.01 -209,9.02 -268.88,-2.81 -34.43,-6.8 -150.69,-71.73 -174.99,-100.12 -47.97,-56.05 -62.31,-151.44 -71.59,-224.54 -5.4,-42.68 -17.8,-76.4 -20.07,-121.31 -2.79,-55.44 3.3,-82.22 -12.16,-138.52 -24.16,-87.9 -23.7,-166.3 -40.6,-258.87 -8.65,-47.37 -4.73,-85.96 -10.78,-132.1 -5.6,-42.68 -20.58,-81.98 -25.51,-123.61 -5.75,-48.66 -1.3,-88.01 -11.87,-138.89 -28.26,-136.11 -10.06,-136.55 -38.64,-253.06 -12.29,-50.11 -9.59,-85.62 -15.23,-135.11 -5.02,-44 -18.16,-82.87 -21.88,-127.67 -4.2,-50.44 -1.03,-85.67 -14.22,-136.25 -37.16,-142.51 -31.76,-251.15 -100.73,-487.83 -43.77,-150.14 -99.17,-303.98 -137.01,-455.15 -27.53,14.53 -30.05,14.94 -34.96,48.91 -6.58,45.5 -8.25,37.19 -17.78,76.18 -10.92,44.73 -7.65,120.05 -22.96,158.5 -15.28,38.37 -10.48,13.11 -20.55,65.07l-49.83 224.49c-18.76,48.24 -37.16,198.02 -44.64,222.3 -9.27,30.12 -17.43,31.44 -24.42,68.74 -20.75,110.81 -41.74,179.08 -77.54,281.52 -9.35,26.76 -6.13,42.77 -18,67.93 -17.1,36.2 -14.24,21.67 -26.63,66.27l-47.88 130.54c-12.68,26.59 -30.87,103.98 -42.48,136.59 -11.25,31.55 -15.27,18.79 -25.19,59.86l-117.14 333.25c-9.13,31.75 -6.12,33.29 -19.92,65.77 -15.05,35.41 -4.88,40.66 -19.3,74.49 -10.77,25.25 -43.64,108.08 -47.54,130.92 4.14,7.48 215.96,186.18 245.86,212.43 82.12,72.1 181.36,182.17 102.92,306.01 -77.31,122.03 -227.29,107.35 -342.31,105.61 -144.2,-2.2 -292.58,-0.78 -436.82,2.12 -298.41,5.99 -418.76,-230 -331.6,-535.99 70.68,-248.17 129.3,-503.84 202.09,-750.2 133.75,-452.61 210.3,-702.79 266.8,-1166.43 9.1,-74.67 6.95,-143.53 18.2,-219.97 12.35,-83.86 16.26,-142.47 19.05,-227.16l43.32 -440.11c31.36,-204.65 31.63,-463.99 46.34,-677.02 5.06,-73.24 22.69,-143.52 28.54,-216.31 6.45,-80.31 -1.37,-155.29 8.58,-238.86 9.67,-81.19 14.41,-144.06 19.6,-225.49 4.61,-72.59 23.62,-137.23 28.88,-208.85 5.85,-79.79 1.43,-156.52 8.89,-237.78 13.6,-148.03 28.04,-291.31 44.81,-438.88 30.73,-270.48 -15.56,-593.49 122.19,-840.17 267.96,-479.89 840.11,-472.78 1208.03,-143.63 144.83,129.58 301.9,343.66 420.87,505.26l194.65 270.75c73.75,78.98 253.02,-5.23 341.38,-30.53 108.2,-30.99 230.3,-48.45 310.9,-139.95 70.82,-80.42 140.04,-170.51 210.89,-252.38 72.56,-83.85 161.51,-211.31 267.38,-90.65 98.21,111.94 -20.56,177.04 -71.54,318.59 49.01,-16.22 62.23,2.95 112.98,-25.48 30.47,-17.06 80.33,-17.82 116.56,-21.46 130.92,-13.16 311.75,-97.25 436.72,68.65 78.57,104.29 38.88,267.23 -25.88,344.11 -48.46,57.55 -123.25,90.4 -169.65,122.14 -38.64,26.45 -57.76,19.45 -101.24,46.65 -44.24,27.66 -46.96,35.25 -98.55,41.68 -31.4,3.89 -67.41,31.72 -99.23,48.9 -45.96,24.8 -70.41,7.24 -107.91,31.17 -106.88,68.2 -111.21,42.55 -154.18,59.38 -33.71,13.2 -35.21,36.57 -158.69,62.33 -27.68,5.78 -23.05,9.49 -44.2,22.51 -22.15,13.65 -135.47,41.96 -162.26,58.32 -63.82,38.99 -129.62,44.83 -158.33,54.73 -13.28,4.58 -72.44,46.05 -152.41,61.36 -50.9,9.75 -54.4,27.02 -109.11,37.83 -86.23,17.02 -126.92,64.75 -231.42,52.24 -118.03,-14.13 -287.32,-126.85 -365.48,-214.75 -31.35,-35.25 -116.98,-133.26 -156.09,-137.35 0,88.37 -7.14,164.79 -7.14,256.35 0,94.15 -7.16,171.78 -7.15,264.36l0.25 408.83c-0.06,47.59 -7.38,76.53 -7.38,127.66z"/>
   </g>
   <g>
    <path class="fil11" d="M25191.9 8791.51c80.12,-3.16 133.49,10.34 210.31,21.39 59.79,8.6 153.55,7.63 207.66,24.35 70.58,21.82 132.85,22.39 206.34,25.82 75.42,3.53 137.94,19.35 213.24,26.14l205.26 27.02c175.41,31.27 266.77,-54.44 381.02,87.03 54.37,67.34 58.62,93.43 78.05,177.17 57.66,248.42 36.66,97.57 53.83,324.37 5.09,67.19 111.16,400.2 35.37,559.56 -68.42,143.87 -157.14,183.68 -284.11,94.94 -125.18,-87.48 -223.24,-373.37 -290.17,-452.97 -42.49,-50.51 -138.76,-34.26 -199.52,-33.44 -145.37,1.94 -301.33,-26.72 -443.94,-24.76 -151.16,2.1 -301.51,-5.33 -452.57,-7.08 -270.46,-3.13 -472.73,-101.07 -593.93,-369.82 -51.76,-114.78 -95.02,-236.25 -156.73,-345.65 -59.76,-105.93 -111.76,-221.42 -174.65,-325.59 -28.59,-47.34 -68.12,-104.45 -91.79,-153.81 -20.95,-43.7 -60.56,-133.67 -86.81,-167.37l-1047.57 912.5c-16.94,28.35 -47.72,129.26 -59.4,165.95 -10.5,33.01 -11.64,58.77 -20.24,89.55l-145.85 421.84c-19.36,56.33 -35.89,112.05 -55.89,169.87 -36.94,106.77 -65.08,245.26 -101.76,350.95 -77.7,223.91 -141.71,456.65 -214.13,682.62 -37.52,117.06 -147.35,181.98 -254.99,178.76 -121.49,-3.63 -205.43,-57.41 -307.49,-121.54 -106.33,-66.82 -462.23,-258.02 -514.14,-354.86 -38.2,-71.26 -41.94,-96.18 -7.78,-169.85 22.45,-48.39 60.67,-96.71 110.5,-108.44 81.81,-19.26 313.28,-6.36 410.2,-6.36 10.79,-68.94 117.43,-415.68 147.02,-540.7 7.31,-30.87 19.61,-43.5 25.91,-75.19 21.28,-107.07 58.08,-208.72 83.63,-315.13 12.97,-54.02 33.29,-105.38 39.09,-156.6 3.4,-30.08 29.57,-135.86 40.67,-162.84l77.56 -313.9c5.48,-53.71 15.76,-107.5 41.02,-154.45 17.32,-32.18 15.58,-42.32 26.8,-74.19 10.95,-31.09 96.28,-141.65 116.42,-174.36l261.36 -324.84c113.97,-136.4 223.34,-292.49 336.87,-432.75 54.87,-67.8 118.21,-148.84 174.85,-213.22 29.58,-33.63 58.53,-67.58 88.14,-101.28 47.98,-54.62 12.23,-94.11 2.19,-155.42 -6.45,-39.44 -7.6,-37.3 -21.14,-71.98l-120.68 -474.57c-9.07,-26.88 -24.65,-147.8 -59.33,-238.13 -7.98,-20.79 -34.83,-137.54 -39.42,-164.25 -6.4,-37.31 -13.45,-39.18 -23.29,-70.11l-43.21 -264.15c-85.14,38.35 -129.89,65.67 -205.87,122.47 -64.95,48.57 -138.29,85.24 -205.34,131.47 -176.89,121.96 -320.16,134.12 -519.72,56.52 -291.68,-113.44 -605.87,-296.62 -894.28,-434.29 -151.47,-72.31 -298.76,-139.82 -450.74,-209.8 -71.49,-32.93 -152.59,-69.09 -193.84,-146.54 -45.39,-85.24 -68.4,-391.32 276.24,-290.71l539.35 133.46c325.26,64.98 -206.57,-294.71 -147.58,-538.67 24.28,-100.44 116.05,-139.77 200.25,-108.11 101.68,38.25 441.69,398.7 528.56,488.21 55.61,57.31 116.41,110.62 170.55,167.3 47.73,49.97 109.62,145.36 182.76,131.74 61.69,-11.49 125.96,-108.62 173.18,-155.55l513.81 -505.53c585.53,-573.05 1214.68,94.77 1248.27,131.51 58.22,141.18 116.59,429.25 301.12,1048.59l574.07 2200.3c49.52,173.7 111.63,381.71 146.43,557.4z"/>
   </g>
   <polygon class="fil12" points="16457.11,6285.05 16479.25,6276.29 16477.55,6020.75 16457.11,6012.61 "/>
   <ellipse class="fil11 str1" cx="3006.05" cy="3354.02" rx="693.17" ry="750.94"/>
   <ellipse class="fil11 str1" cx="22858.26" cy="3533.04" rx="693.17" ry="750.94"/>
  </g>
  <g id="_1487284679456">
   <path class="fil13 str0" d="M4857.21 2424.7c523.71,-65.94 604.23,-67.41 726.09,-79.16 207.71,-20.04 282.8,491.44 302.3,685.66 23.72,236.27 102.78,896.39 -237.76,928.86 -219.89,20.97 -420.92,43.19 -623.69,69.8 -203.4,21.27 -385.3,41.98 -604.04,72.73 -338.76,47.62 -415.38,-612.79 -447.26,-848.09 -26.21,-193.44 -72.13,-708.36 134.55,-737.17 60.61,-8.46 116.91,-17.2 223.62,-31.04 106.7,-13.82 263.85,-32.76 526.19,-61.59z"/>
   <path class="fil14" d="M4756.96 2525.12c72.79,-9.17 83.99,-9.37 100.92,-11 28.88,-2.79 39.31,68.3 42.02,95.3 3.3,32.84 14.29,124.59 -33.04,129.1 -30.57,2.92 -58.51,6.01 -86.69,9.71 -28.27,2.95 -53.56,5.83 -83.96,10.11 -47.09,6.61 -57.74,-85.18 -62.17,-117.88 -3.64,-26.89 -10.02,-98.46 18.7,-102.47 8.43,-1.17 16.25,-2.39 31.09,-4.31 14.83,-1.92 36.67,-4.55 73.13,-8.56z"/>
   <g>
    <path class="fil15" d="M4271.3 3079.7l0.29 31.82c0.36,11.1 0.64,22.36 1.17,33.43 1.05,21.65 2.36,45.49 2.58,67.03l32.08 -1.16c-0.6,-24.71 -5.17,-105.76 -4.14,-121.96 1.41,-22.29 23.91,-18.51 38.97,-18.92 16.05,-0.44 39.97,-3.02 54.97,-1.83 0.52,11 0.87,22 1.44,33.01 1.08,20.71 0.91,16.83 45.26,14.99 6.5,-0.26 22.82,1.26 26.31,-4.69 1.66,-4.21 -3.08,-37.49 -4.49,-43.9l0.59 -2.73c15.93,-0.72 31.89,-1.12 47.57,-1.56 9.86,-0.28 36.41,-3.36 43.56,2.96 9.31,8.23 7.13,31.03 7.78,43.81 0.43,8.53 0.62,17.04 1,25.56 0.38,8.42 -0.28,19.13 0.85,27.05 3.3,1.8 8.78,5.6 10.64,8.56l22.03 18.75c0.32,-22.61 -1.38,-47.39 -1.95,-70.25 -0.5,-20.17 0.81,-45.86 -7.57,-64.01 -18.88,-40.89 -61.92,-29.05 -102.14,-27.63 -43.3,1.54 -86.6,2.95 -129.89,4.57 -17.99,0.67 -43.86,-0.89 -59.99,6.99 -13.21,6.45 -26.66,24.04 -26.92,40.11z"/>
    <path class="fil0" d="M4307.42 3210.82l-32.08 1.16c-3.71,1.28 -21.78,1.12 -27.15,1.31 -4.85,0.17 -9.69,0.31 -14.54,0.46 -6.92,0.2 -6.11,-0.12 -11.73,2.91l-0.96 0.81 -1.23 0.75 -0.85 1.04c0.11,1.44 0.45,1.13 -0.81,1.11l-0.61 1.15c-2.12,7.88 -4.35,11.14 -0.63,19.53 2.69,6.05 6.19,8.57 12.07,10.39 8.58,2.67 290.12,-11.53 298.45,-8.79 0.4,5.16 -14.87,15.8 -19.27,19.83 -6.72,6.16 -13.44,12.47 -20.16,18.56 -22.03,19.93 3.15,48.23 21.63,34.21l82.22 -74.5c7.4,-8.38 5.83,-20.89 -1.14,-28.85 -4.91,-5.6 -14.68,-12.86 -20.67,-17.91 -9.77,-8.22 -55.37,-50.09 -65.63,-51.69 -9.8,-1.53 -19.38,6.06 -20.39,16.88 -2.15,23.1 31.22,30.93 35.1,44.37l-211.62 7.27z"/>
    <path class="fil0" d="M5296.13 3213.91c-0.05,-4.76 10.01,-40.71 12.48,-50.31l5.33 -16.63 21.82 65.68 -39.63 1.26zm-19.88 69.46c5.6,-9.78 7.06,-26.62 11.67,-37.91l58.14 -2.01c3.51,5.06 10.83,28.94 14.15,37.31l33.01 -1.57c0.21,-5.83 -27.14,-78.24 -31.34,-89.79 -4.57,-12.57 -28.39,-82.38 -33.25,-88.2l-34.49 1.32c-2.85,6.61 -4.63,15.3 -6.66,22.38 -2.12,7.4 -4.41,15.41 -6.56,23.06 -4.21,15.03 -8.58,30.64 -12.82,45.5 -3.1,10.9 -24.98,86.29 -24.7,91.2l32.85 -1.29z"/>
    <path class="fil0" d="M4740.65 3234.23c1.23,-6.91 15.85,-64.86 17.91,-67.53 2.12,2.9 0.78,0.97 2.06,4.56 0.56,1.54 0.65,1.96 1.14,3.61 0.81,2.74 1.67,5.42 2.58,8.1 1.88,5.54 3.71,10.89 5.61,16.22 2.67,7.48 10.05,26.62 10.71,33.59l-40.01 1.45zm-8.12 30.87l58.55 -1.85c2.61,3.67 5.53,13.44 7.27,18.34 1.98,5.61 5.29,13.52 6.83,18.54l32.95 -1.6c0.21,-5.59 -12.31,-36.41 -15.15,-44.28 -6.77,-18.7 -46.33,-130.26 -49.18,-132.36 -4.48,-2.33 -27.73,-0.14 -34.33,0.51 -1.97,4.1 -5.02,16.74 -6.65,22.48 -2.22,7.78 -4.15,15.05 -6.42,22.83l-25.33 90.54c-2.43,8.2 -11.95,39.91 -11.84,46.53l33.26 -1.66 10.04 -38.02z"/>
    <path class="fil0" d="M4586.97 3373.65c-1.46,-12.32 -9.42,-22.03 -15.27,-31.64 -12.75,11.13 -19.85,8.6 -35.79,9.17l-213.47 7.12c-10.74,0.32 -32.38,-0.94 -41.58,1.08 -11.89,2.63 -18.44,17.54 -11.87,28.99 7.34,12.78 21.26,9.6 33.01,9.26 14.23,-0.42 28.47,-0.89 42.7,-1.36 28.46,-0.93 56.92,-1.96 85.38,-2.92 28.46,-0.97 56.92,-2.01 85.38,-3.01 21.58,-0.77 55.84,2.24 71.51,-16.69z"/>
    <path class="fil0" d="M5483.9 3195.06c-0.18,-31.37 50.4,-33.53 49.7,-1.91l-49.7 1.91zm81.07 21.98c7.25,-89.64 -98.56,-100.62 -111.9,-20.56 -5.76,34.55 9.78,70.1 42.3,78.81 43.88,11.75 73.16,-27.88 69.11,-42.76l-28.69 1.07c-4.33,6.17 -3.19,9.25 -10.95,13.26 -17.76,9.18 -41.61,-4.48 -41.26,-26.51l81.39 -3.31z"/>
    <path class="fil0" d="M5127.43 3232.85c3.56,28.61 -26.09,39.93 -38.95,28.88 -8.4,-7.22 -7.23,-20.83 3.26,-25.96 5.86,-2.86 28.68,-3.5 35.69,-2.92zm-43.5 -32.57c6.08,-11.61 9.59,-18.65 24.47,-17.01 10.64,1.17 19.3,13.45 16.83,24.58 -3.9,2.05 -22.76,2.4 -28.64,2.82 -59.77,4.32 -52.71,72.49 -11.07,80.07 21.58,3.94 30.35,-2.21 43.67,-14.28l0.73 12.05c6.79,-0.75 22.28,0.63 27.14,-2.02 1.69,-5.31 -1.5,-60.02 -1.89,-70.35 -0.78,-21.16 1.23,-39.75 -18.1,-51.5 -21.2,-12.88 -55.17,-10.67 -73.86,12.95 -3.77,4.75 -10.07,17.12 -7.82,23.2 3.31,2.11 23.37,0.52 28.54,-0.51z"/>
    <path class="fil0" d="M4879.14 3296.42c1.41,-5.53 -1.36,-54.63 -1.7,-64.55 -0.35,-9.87 -2.12,-19.65 3.08,-28.02 9.32,-14.99 30.21,-14.34 38.84,-0.42 8.6,13.87 2.62,78.29 7.31,92.05l28.18 -1.34c1,-16.29 -1.27,-41.81 -1.9,-59.03 -0.63,-17.19 1.05,-36.1 -7.93,-50.91 -12.44,-20.51 -39.16,-25.41 -56.91,-14.66 -8.07,4.89 -10.92,11.71 -13.86,12.74l-1.6 -13.48c-4.09,-2.38 -21.97,-0.89 -27.56,0.18l4.96 128.28c3.56,1.77 25.29,1.04 29.09,-0.84z"/>
    <path class="fil0" d="M4958.17 3164.67l1.51 26.64 19.75 -0.6c1.65,10.7 1.35,28.91 1.75,40.44 0.5,13.94 0.89,25.45 2.71,39.28 11.26,26.2 34.77,26.11 59.37,19.63l-1.06 -26.77c-5.63,-0.02 -10.68,2.95 -17.96,2.09 -4.4,-0.52 -9.9,-5.11 -10.19,-10.03 -4.35,-4.4 -3.23,-24.81 -3.49,-32.13 -0.28,-7.64 -2.18,-27.06 -0.53,-32.85 3.26,-2.16 10.82,-1.39 14.88,-1.54 4.76,-0.17 9.57,-0.21 14.3,-0.43l-0.56 -26.3 -30.03 0.78 -1.89 -31.28c-1.45,0.3 -1.16,0.65 -0.98,-0.9 -1.42,0.23 -1.04,0.51 -0.89,-1.11l-26.95 0.84 0.37 33.73 -20.11 0.51z"/>
    <path class="fil0" d="M4171.13 3312.96c3.89,18.41 27.79,13.15 48.28,12.46l120.81 -4.33c14.12,-0.54 45.5,4.27 42.78,-19.29 -1.32,-11.4 -9.63,-13.45 -18.46,-13.09l-89.92 3.24c-20.29,0.77 -40.57,1.45 -60.86,2.14 -9.62,0.33 -20.6,0.24 -30.04,1.05 -8.19,0.7 -14.43,9.13 -12.59,17.82z"/>
    <path class="fil0" d="M5386.85 3328.68c10.32,6.95 35.32,0.58 43.91,-8.9 12.21,-13.47 9.88,-31.93 9.26,-49.72 -1.12,-32.16 -2.13,-93.83 -4.46,-122.28l-29.87 1.55c0.27,25.5 5.46,118.43 4.41,134.55 -0.3,4.67 -2.44,12.14 -6.52,15.16 -5.04,3.73 -11.81,2.15 -17.82,3.07l1.09 26.57z"/>
    <path class="fil0" d="M5221.63 3155.63c-5.7,0.06 -9.65,3.92 -13.73,7.32 0.06,1.75 0.43,1.37 -1.2,1.02 0.52,1.67 0.64,1.15 -1.05,0.83 0.27,1.71 0.67,1.49 -0.83,1.07 0.51,1.55 0.8,1.19 -0.67,1.24 0.83,2.18 1.69,2.29 -0.31,1.55 -1.61,2 1.23,0.66 -2.89,1.79l-0.14 -13.7 -27.65 0.86 5.05 127.77c4.02,2.08 22.43,0.06 28.5,-0.05 -0.72,-7.25 -3.47,-69.51 -1.39,-70.42 -0.15,-2.09 -0.95,-3.83 0.89,-5.16 -0.34,-5.95 3.33,-11.74 6.52,-16.04 4.24,-5.73 7.88,-5.53 13.15,-8.42 4.8,-3.07 11.67,-1.74 17.51,-1.38l-1.88 -28.38c-8.97,-3.3 -11.42,-1.01 -19.88,0.1z"/>
    <path class="fil15" d="M4571.7 3342.01c5.85,9.61 13.81,19.32 15.27,31.64 13.14,-11.7 17.33,-27.65 17.15,-46.46 -0.19,-20.99 -1.29,-43.8 -2.15,-64.87 -3.2,0.68 -30.69,25.97 -30.7,25.98 -2.12,11.04 2.42,38.1 0.43,53.71z"/>
    <path class="fil0" d="M5402.95 3114.83c5.81,23.09 38.96,15.55 34.18,-7.83 -5.07,-24.87 -40.15,-15.87 -34.18,7.83z"/>
    <path class="fil16" d="M4958.17 3164.67c-1.32,3.13 -0.21,9.79 -0.04,14.13 0.12,3.06 -0.84,11.48 1.55,12.51 1.97,2.14 3.27,1.12 8.96,0.84 3.46,-0.17 6.89,-0.28 10.35,-0.48 0.15,13.39 0.87,27.08 1.38,40.5 0.27,7.17 -0.48,32.4 3.52,38.26 -1.82,-13.83 -2.21,-25.34 -2.71,-39.28 -0.4,-11.53 -0.1,-29.74 -1.75,-40.44l-19.75 0.6 -1.51 -26.64 20.11 -0.51 -0.37 -33.73 26.95 -0.84c-0.15,1.62 -0.53,1.34 0.89,1.11 -0.18,1.55 -0.47,1.2 0.98,0.9l1.89 31.28 30.03 -0.78 0.56 26.3c-4.73,0.22 -9.54,0.26 -14.3,0.43 -4.06,0.15 -11.62,-0.62 -14.88,1.54 -1.65,5.79 0.25,25.21 0.53,32.85 0.26,7.32 -0.86,27.73 3.49,32.13 -0.05,-4.1 -1.81,-9.49 -2.02,-15.44 -0.19,-5.58 -0.42,-11.14 -0.61,-16.72 -0.36,-10.05 -0.1,-23.2 -1.39,-32.82 5.25,0.43 10.57,-0.07 15.83,-0.25 3.05,-0.11 12.6,0.91 13.35,-1.72 1.79,-2.04 0.83,-23.44 -0.56,-26.3 -2.04,-2.11 0.85,-1.1 -3.75,-1.41l-25.46 1.31c-0.33,-4.34 0.44,-29.98 -2.71,-30.4 0.24,-1.51 0.48,-1.12 -0.98,-0.9 0.16,-1.77 0.6,-1.57 -0.89,-1.11 -1.47,-2.21 -10.61,-0.69 -13.9,-0.61 -2.65,0.07 -12.45,-0.97 -13.05,1.45 -2.59,2 0.21,23.42 -0.26,32.62 -3.34,0.1 -6.69,0.21 -10.03,0.29 -9.61,0.2 -8.04,-1.72 -9.45,1.33z"/>
    <path class="fil17" d="M5206.71 3285.33c1.93,-3.75 -0.16,-28.9 -0.39,-35.56 -0.19,-5.52 -0.22,-32.26 -1,-34.86l0.89 -5.16c-1.84,1.33 -1.04,3.07 -0.89,5.16 -2.08,0.91 0.67,63.17 1.39,70.42 -6.07,0.11 -24.48,2.13 -28.5,0.05l-5.05 -127.77 27.65 -0.86 0.14 13.7c4.12,-1.13 1.28,0.21 2.89,-1.79 2,0.74 1.14,0.63 0.31,-1.55 1.47,-0.05 1.18,0.31 0.67,-1.24 1.5,0.42 1.1,0.64 0.83,-1.07 1.69,0.32 1.57,0.84 1.05,-0.83 1.63,0.35 1.26,0.73 1.2,-1.02 -1.84,-0.05 -1.74,-0.67 -1.2,1.02 -1.56,-0.33 -1.36,-0.77 -1.05,0.83 -1.67,-0.38 -1.35,-0.69 -0.83,1.07 -1.67,-0.43 -1.19,-0.61 -0.67,1.24l-0.31 1.55c-2.4,-2.75 -0.86,0.36 -1.51,-3.4 0,-0.01 -0.01,-2.79 -0.02,-3.01 -0.09,-3.63 0.79,-4.94 -1.5,-5.5 -1.94,-2.42 -10.56,-0.67 -14.26,-0.52 -2.89,0.12 -12.22,-1 -13.39,1.38 -1.9,1.54 -1.03,-3.08 -1.26,3.69 -0.01,0.4 0.25,3.32 0.29,4.02 1.12,20.06 2.87,118.92 5.01,121.23 3.71,2.22 10.35,0.95 14.89,0.74 2.78,-0.13 5.39,-0.3 8.19,-0.32 7.77,-0.06 5.69,0.48 6.43,-1.64z"/>
    <path class="fil18" d="M4465.74 3067.52c4.97,-2.86 43.23,-2.58 51.85,-2.82 21.06,-0.6 35.93,-5.36 43.39,7.75 3.48,6.12 3.63,45.4 3.98,55.28 1.16,32.82 -3.3,34.31 12.77,43.44 -1.86,-2.96 -7.34,-6.76 -10.64,-8.56 -1.13,-7.92 -0.47,-18.63 -0.85,-27.05 -0.38,-8.52 -0.57,-17.03 -1,-25.56 -0.65,-12.78 1.53,-35.58 -7.78,-43.81 -7.15,-6.32 -33.7,-3.24 -43.56,-2.96 -15.68,0.44 -31.64,0.84 -47.57,1.56l-0.59 2.73z"/>
    <path class="fil18" d="M4221.92 3216.66l-0.96 0.81 -1.23 0.75c-1.28,-0.1 -0.96,-0.4 -0.85,1.04 -1.29,0.05 -1,-0.3 -0.81,1.11l-0.61 1.15 0.61 -1.15c1.26,0.02 0.92,0.33 0.81,-1.11l0.85 -1.04 1.23 -0.75 0.96 -0.81c5.62,-3.03 4.81,-2.71 11.73,-2.91 4.85,-0.15 9.69,-0.29 14.54,-0.46 5.37,-0.19 23.44,-0.03 27.15,-1.31 -0.22,-21.54 -1.53,-45.38 -2.58,-67.03 -0.53,-11.07 -0.81,-22.33 -1.17,-33.43l-0.29 -31.82c-5.17,6.08 5.23,116.45 2.36,131.96 -9.17,0.07 -18.17,0.65 -27.32,0.9 -7.83,0.21 -18.37,-1.04 -24.42,4.1z"/>
    <path class="fil19" d="M5221.63 3155.63c8.46,-1.11 10.91,-3.4 19.88,-0.1l1.88 28.38c-5.84,-0.36 -12.71,-1.69 -17.51,1.38 3.29,-0.33 6.55,-0.82 9.87,-0.69 3.84,0.15 4.77,1.06 7.64,-0.69 1.26,-3.02 0.35,-11.22 0.21,-15.2 -0.27,-7.72 0.85,-12.78 -2.09,-13.18 -2.69,-5.07 -16.04,-3.06 -19.88,0.1z"/>
   </g>
  </g>
 </g>
</svg>
