<?xml version="1.0" encoding="UTF-8"?>
<!DOCTYPE svg PUBLIC "-//W3C//DTD SVG 1.1//EN" "http://www.w3.org/Graphics/SVG/1.1/DTD/svg11.dtd">
<!-- Creator: CorelDRAW (Evaluation Version) -->
<svg xmlns="http://www.w3.org/2000/svg" xml:space="preserve" width="4.746mm" height="3.902mm" version="1.1" style="shape-rendering:geometricPrecision; text-rendering:geometricPrecision; image-rendering:optimizeQuality; fill-rule:evenodd; clip-rule:evenodd"
viewBox="0 0 474.6 390.2"
 xmlns:xlink="http://www.w3.org/1999/xlink"
 xmlns:xodm="http://www.corel.com/coreldraw/odm/2003">
 <defs>
  <style type="text/css">
   <![CDATA[
    .str0 {stroke:black;stroke-width:7.62;stroke-miterlimit:22.9256}
    .str1 {stroke:black;stroke-width:7.62;stroke-miterlimit:22.9256}
    .fil0 {fill:black}
   ]]>
  </style>
 </defs>
 <g id="Layer_x0020_1">
  <metadata id="CorelCorpID_0Corel-Layer"/>
  <g id="_2089335966368">
   <ellipse class="fil0" cx="225.04" cy="84.51" rx="74.69" ry="77.11"/>
   <ellipse class="fil0" cx="67.4" cy="136.41" rx="50.93" ry="50.44"/>
   <ellipse class="fil0" cx="384.61" cy="140.29" rx="50.93" ry="50.44"/>
   <path class="fil0 str0" d="M126.01 304c-0.27,-44.31 42.98,-81.2 96.22,-82.05l5.6 -0.08c53.22,-0.84 96.99,34.73 97.31,79.02l-0.74 96.68 -198.39 0 0 -93.57z"/>
   <g>
    <path class="fil0 str1" d="M57.65 295.38c-2.38,4.05 0,67.21 0,100.81l-64.7 0c0,-33.6 -2.61,-95.6 0,-100.81 3.29,-8.92 8.58,-16.68 15.17,-23.22 19.46,-19.31 50.44,-28.08 75.5,-24.98 11.99,1.48 -19.15,16.49 -25.97,48.2z"/>
   </g>
   <g>
    <path class="fil0 str1" d="M400.49 295.38c2.38,4.05 0,67.21 0,100.81l64.7 0c0,-33.6 2.61,-95.6 0,-100.81 -3.29,-8.92 -8.58,-16.68 -15.17,-23.22 -19.46,-19.31 -50.44,-28.08 -75.5,-24.98 -11.99,1.48 19.15,16.49 25.97,48.2z"/>
   </g>
  </g>
 </g>
</svg>
